<svg xmlns="http://www.w3.org/2000/svg" xmlns:xlink="http://www.w3.org/1999/xlink" width="500" zoomAndPan="magnify" viewBox="0 0 375 374.999991" height="500" preserveAspectRatio="xMidYMid meet" version="1.0"><defs><g/><clipPath id="74e59e9db1"><path d="M 6.140625 155.832031 L 68.859375 155.832031 L 68.859375 218.550781 L 6.140625 218.550781 Z M 6.140625 155.832031 " clip-rule="nonzero"/></clipPath><clipPath id="ee502c3f88"><path d="M 37.5 155.832031 C 20.179688 155.832031 6.140625 169.871094 6.140625 187.191406 C 6.140625 204.511719 20.179688 218.550781 37.5 218.550781 C 54.820312 218.550781 68.859375 204.511719 68.859375 187.191406 C 68.859375 169.871094 54.820312 155.832031 37.5 155.832031 Z M 37.5 155.832031 " clip-rule="nonzero"/></clipPath><clipPath id="e5bb489833"><path d="M 0.140625 0.832031 L 62.859375 0.832031 L 62.859375 63.550781 L 0.140625 63.550781 Z M 0.140625 0.832031 " clip-rule="nonzero"/></clipPath><clipPath id="12a834ad27"><path d="M 31.5 0.832031 C 14.179688 0.832031 0.140625 14.871094 0.140625 32.191406 C 0.140625 49.511719 14.179688 63.550781 31.5 63.550781 C 48.820312 63.550781 62.859375 49.511719 62.859375 32.191406 C 62.859375 14.871094 48.820312 0.832031 31.5 0.832031 Z M 31.5 0.832031 " clip-rule="nonzero"/></clipPath><linearGradient x1="0.00000190043" gradientTransform="matrix(0.244998, 0, 0, 0.244998, 0.140291, 0.831826)" y1="255.999998" x2="255.999996" gradientUnits="userSpaceOnUse" y2="0.00000360003" id="242823f0b5"><stop stop-opacity="1" stop-color="rgb(27.449036%, 7.058716%, 28.239441%)" offset="0"/><stop stop-opacity="1" stop-color="rgb(27.449036%, 7.058716%, 28.239441%)" offset="0.125"/><stop stop-opacity="1" stop-color="rgb(27.449036%, 7.058716%, 28.239441%)" offset="0.140625"/><stop stop-opacity="1" stop-color="rgb(27.449036%, 7.058716%, 28.239441%)" offset="0.148437"/><stop stop-opacity="1" stop-color="rgb(27.934265%, 7.240295%, 28.233337%)" offset="0.152344"/><stop stop-opacity="1" stop-color="rgb(28.419495%, 7.421875%, 28.22876%)" offset="0.15625"/><stop stop-opacity="1" stop-color="rgb(29.025269%, 7.647705%, 28.222656%)" offset="0.160156"/><stop stop-opacity="1" stop-color="rgb(29.632568%, 7.875061%, 28.216553%)" offset="0.164062"/><stop stop-opacity="1" stop-color="rgb(30.238342%, 8.100891%, 28.210449%)" offset="0.167969"/><stop stop-opacity="1" stop-color="rgb(30.845642%, 8.328247%, 28.204346%)" offset="0.171875"/><stop stop-opacity="1" stop-color="rgb(31.451416%, 8.555603%, 28.198242%)" offset="0.175781"/><stop stop-opacity="1" stop-color="rgb(32.058716%, 8.782959%, 28.192139%)" offset="0.179687"/><stop stop-opacity="1" stop-color="rgb(32.66449%, 9.008789%, 28.186035%)" offset="0.183594"/><stop stop-opacity="1" stop-color="rgb(33.27179%, 9.236145%, 28.179932%)" offset="0.1875"/><stop stop-opacity="1" stop-color="rgb(33.877563%, 9.461975%, 28.172302%)" offset="0.191406"/><stop stop-opacity="1" stop-color="rgb(34.484863%, 9.689331%, 28.166199%)" offset="0.195312"/><stop stop-opacity="1" stop-color="rgb(35.090637%, 9.915161%, 28.160095%)" offset="0.199219"/><stop stop-opacity="1" stop-color="rgb(35.697937%, 10.142517%, 28.153992%)" offset="0.203125"/><stop stop-opacity="1" stop-color="rgb(36.303711%, 10.368347%, 28.147888%)" offset="0.207031"/><stop stop-opacity="1" stop-color="rgb(36.911011%, 10.595703%, 28.141785%)" offset="0.210937"/><stop stop-opacity="1" stop-color="rgb(37.516785%, 10.821533%, 28.135681%)" offset="0.214844"/><stop stop-opacity="1" stop-color="rgb(38.124084%, 11.048889%, 28.129578%)" offset="0.21875"/><stop stop-opacity="1" stop-color="rgb(38.729858%, 11.276245%, 28.123474%)" offset="0.222656"/><stop stop-opacity="1" stop-color="rgb(39.337158%, 11.503601%, 28.117371%)" offset="0.226562"/><stop stop-opacity="1" stop-color="rgb(39.942932%, 11.729431%, 28.109741%)" offset="0.230469"/><stop stop-opacity="1" stop-color="rgb(40.550232%, 11.956787%, 28.103638%)" offset="0.234375"/><stop stop-opacity="1" stop-color="rgb(41.157532%, 12.182617%, 28.097534%)" offset="0.238281"/><stop stop-opacity="1" stop-color="rgb(41.764832%, 12.409973%, 28.091431%)" offset="0.242187"/><stop stop-opacity="1" stop-color="rgb(42.370605%, 12.635803%, 28.085327%)" offset="0.246094"/><stop stop-opacity="1" stop-color="rgb(42.977905%, 12.863159%, 28.079224%)" offset="0.25"/><stop stop-opacity="1" stop-color="rgb(43.583679%, 13.088989%, 28.07312%)" offset="0.253906"/><stop stop-opacity="1" stop-color="rgb(44.190979%, 13.316345%, 28.067017%)" offset="0.257812"/><stop stop-opacity="1" stop-color="rgb(44.796753%, 13.542175%, 28.060913%)" offset="0.261719"/><stop stop-opacity="1" stop-color="rgb(45.404053%, 13.769531%, 28.05481%)" offset="0.265625"/><stop stop-opacity="1" stop-color="rgb(46.009827%, 13.996887%, 28.04718%)" offset="0.269531"/><stop stop-opacity="1" stop-color="rgb(46.617126%, 14.224243%, 28.041077%)" offset="0.273437"/><stop stop-opacity="1" stop-color="rgb(47.2229%, 14.450073%, 28.034973%)" offset="0.277344"/><stop stop-opacity="1" stop-color="rgb(47.8302%, 14.677429%, 28.02887%)" offset="0.28125"/><stop stop-opacity="1" stop-color="rgb(48.435974%, 14.903259%, 28.022766%)" offset="0.285156"/><stop stop-opacity="1" stop-color="rgb(49.043274%, 15.130615%, 28.016663%)" offset="0.289062"/><stop stop-opacity="1" stop-color="rgb(49.649048%, 15.356445%, 28.010559%)" offset="0.292969"/><stop stop-opacity="1" stop-color="rgb(50.256348%, 15.583801%, 28.004456%)" offset="0.296875"/><stop stop-opacity="1" stop-color="rgb(50.862122%, 15.809631%, 27.998352%)" offset="0.300781"/><stop stop-opacity="1" stop-color="rgb(51.469421%, 16.036987%, 27.992249%)" offset="0.304687"/><stop stop-opacity="1" stop-color="rgb(52.075195%, 16.262817%, 27.984619%)" offset="0.308594"/><stop stop-opacity="1" stop-color="rgb(52.682495%, 16.490173%, 27.978516%)" offset="0.3125"/><stop stop-opacity="1" stop-color="rgb(53.288269%, 16.717529%, 27.972412%)" offset="0.316406"/><stop stop-opacity="1" stop-color="rgb(53.895569%, 16.944885%, 27.966309%)" offset="0.320312"/><stop stop-opacity="1" stop-color="rgb(54.501343%, 17.170715%, 27.960205%)" offset="0.324219"/><stop stop-opacity="1" stop-color="rgb(55.108643%, 17.398071%, 27.954102%)" offset="0.328125"/><stop stop-opacity="1" stop-color="rgb(55.714417%, 17.623901%, 27.947998%)" offset="0.332031"/><stop stop-opacity="1" stop-color="rgb(56.321716%, 17.851257%, 27.941895%)" offset="0.335937"/><stop stop-opacity="1" stop-color="rgb(56.92749%, 18.077087%, 27.935791%)" offset="0.339844"/><stop stop-opacity="1" stop-color="rgb(57.53479%, 18.304443%, 27.929688%)" offset="0.34375"/><stop stop-opacity="1" stop-color="rgb(58.140564%, 18.530273%, 27.923584%)" offset="0.347656"/><stop stop-opacity="1" stop-color="rgb(58.747864%, 18.757629%, 27.91748%)" offset="0.351562"/><stop stop-opacity="1" stop-color="rgb(59.353638%, 18.983459%, 27.909851%)" offset="0.355469"/><stop stop-opacity="1" stop-color="rgb(59.960938%, 19.210815%, 27.903748%)" offset="0.359375"/><stop stop-opacity="1" stop-color="rgb(60.566711%, 19.438171%, 27.897644%)" offset="0.363281"/><stop stop-opacity="1" stop-color="rgb(61.174011%, 19.665527%, 27.891541%)" offset="0.367187"/><stop stop-opacity="1" stop-color="rgb(61.779785%, 19.891357%, 27.885437%)" offset="0.371094"/><stop stop-opacity="1" stop-color="rgb(62.387085%, 20.118713%, 27.879333%)" offset="0.375"/><stop stop-opacity="1" stop-color="rgb(62.992859%, 20.344543%, 27.87323%)" offset="0.378906"/><stop stop-opacity="1" stop-color="rgb(63.600159%, 20.571899%, 27.867126%)" offset="0.382812"/><stop stop-opacity="1" stop-color="rgb(64.205933%, 20.797729%, 27.861023%)" offset="0.386719"/><stop stop-opacity="1" stop-color="rgb(64.813232%, 21.025085%, 27.854919%)" offset="0.390625"/><stop stop-opacity="1" stop-color="rgb(65.419006%, 21.250916%, 27.84729%)" offset="0.394531"/><stop stop-opacity="1" stop-color="rgb(66.026306%, 21.478271%, 27.841187%)" offset="0.398437"/><stop stop-opacity="1" stop-color="rgb(66.595459%, 22.172546%, 27.986145%)" offset="0.402344"/><stop stop-opacity="1" stop-color="rgb(67.164612%, 22.868347%, 28.132629%)" offset="0.40625"/><stop stop-opacity="1" stop-color="rgb(67.723083%, 23.680115%, 28.315735%)" offset="0.410156"/><stop stop-opacity="1" stop-color="rgb(68.281555%, 24.491882%, 28.500366%)" offset="0.414062"/><stop stop-opacity="1" stop-color="rgb(68.840027%, 25.30365%, 28.683472%)" offset="0.417969"/><stop stop-opacity="1" stop-color="rgb(69.400024%, 26.115417%, 28.868103%)" offset="0.421875"/><stop stop-opacity="1" stop-color="rgb(69.958496%, 26.927185%, 29.051208%)" offset="0.425781"/><stop stop-opacity="1" stop-color="rgb(70.518494%, 27.740479%, 29.23584%)" offset="0.429687"/><stop stop-opacity="1" stop-color="rgb(71.076965%, 28.552246%, 29.418945%)" offset="0.433594"/><stop stop-opacity="1" stop-color="rgb(71.636963%, 29.364014%, 29.603577%)" offset="0.4375"/><stop stop-opacity="1" stop-color="rgb(72.195435%, 30.175781%, 29.786682%)" offset="0.441406"/><stop stop-opacity="1" stop-color="rgb(72.755432%, 30.987549%, 29.971313%)" offset="0.445312"/><stop stop-opacity="1" stop-color="rgb(73.313904%, 31.799316%, 30.154419%)" offset="0.449219"/><stop stop-opacity="1" stop-color="rgb(73.873901%, 32.611084%, 30.33905%)" offset="0.453125"/><stop stop-opacity="1" stop-color="rgb(74.432373%, 33.422852%, 30.522156%)" offset="0.457031"/><stop stop-opacity="1" stop-color="rgb(74.992371%, 34.234619%, 30.706787%)" offset="0.460937"/><stop stop-opacity="1" stop-color="rgb(75.550842%, 35.046387%, 30.889893%)" offset="0.464844"/><stop stop-opacity="1" stop-color="rgb(76.11084%, 35.85968%, 31.074524%)" offset="0.46875"/><stop stop-opacity="1" stop-color="rgb(76.669312%, 36.671448%, 31.257629%)" offset="0.472656"/><stop stop-opacity="1" stop-color="rgb(77.229309%, 37.483215%, 31.442261%)" offset="0.476562"/><stop stop-opacity="1" stop-color="rgb(77.787781%, 38.294983%, 31.625366%)" offset="0.480469"/><stop stop-opacity="1" stop-color="rgb(78.347778%, 39.10675%, 31.808472%)" offset="0.484375"/><stop stop-opacity="1" stop-color="rgb(78.90625%, 39.918518%, 31.991577%)" offset="0.488281"/><stop stop-opacity="1" stop-color="rgb(79.466248%, 40.730286%, 32.176208%)" offset="0.492187"/><stop stop-opacity="1" stop-color="rgb(80.024719%, 41.542053%, 32.359314%)" offset="0.496094"/><stop stop-opacity="1" stop-color="rgb(80.584717%, 42.353821%, 32.543945%)" offset="0.5"/><stop stop-opacity="1" stop-color="rgb(81.143188%, 43.165588%, 32.727051%)" offset="0.503906"/><stop stop-opacity="1" stop-color="rgb(81.703186%, 43.977356%, 32.911682%)" offset="0.507812"/><stop stop-opacity="1" stop-color="rgb(82.261658%, 44.789124%, 33.094788%)" offset="0.511719"/><stop stop-opacity="1" stop-color="rgb(82.821655%, 45.602417%, 33.279419%)" offset="0.515625"/><stop stop-opacity="1" stop-color="rgb(83.380127%, 46.414185%, 33.462524%)" offset="0.519531"/><stop stop-opacity="1" stop-color="rgb(83.938599%, 47.225952%, 33.647156%)" offset="0.523438"/><stop stop-opacity="1" stop-color="rgb(84.49707%, 48.03772%, 33.830261%)" offset="0.527344"/><stop stop-opacity="1" stop-color="rgb(85.057068%, 48.849487%, 34.014893%)" offset="0.53125"/><stop stop-opacity="1" stop-color="rgb(85.61554%, 49.661255%, 34.197998%)" offset="0.535156"/><stop stop-opacity="1" stop-color="rgb(86.175537%, 50.473022%, 34.382629%)" offset="0.539062"/><stop stop-opacity="1" stop-color="rgb(86.734009%, 51.28479%, 34.565735%)" offset="0.542969"/><stop stop-opacity="1" stop-color="rgb(87.294006%, 52.096558%, 34.750366%)" offset="0.546875"/><stop stop-opacity="1" stop-color="rgb(87.852478%, 52.908325%, 34.933472%)" offset="0.550781"/><stop stop-opacity="1" stop-color="rgb(88.412476%, 53.721619%, 35.116577%)" offset="0.554687"/><stop stop-opacity="1" stop-color="rgb(88.970947%, 54.533386%, 35.299683%)" offset="0.558594"/><stop stop-opacity="1" stop-color="rgb(89.530945%, 55.345154%, 35.484314%)" offset="0.5625"/><stop stop-opacity="1" stop-color="rgb(90.089417%, 56.156921%, 35.667419%)" offset="0.566406"/><stop stop-opacity="1" stop-color="rgb(90.649414%, 56.968689%, 35.852051%)" offset="0.570312"/><stop stop-opacity="1" stop-color="rgb(91.207886%, 57.780457%, 36.035156%)" offset="0.574219"/><stop stop-opacity="1" stop-color="rgb(91.767883%, 58.592224%, 36.219788%)" offset="0.578125"/><stop stop-opacity="1" stop-color="rgb(92.326355%, 59.403992%, 36.402893%)" offset="0.582031"/><stop stop-opacity="1" stop-color="rgb(92.886353%, 60.215759%, 36.587524%)" offset="0.585937"/><stop stop-opacity="1" stop-color="rgb(93.444824%, 61.027527%, 36.77063%)" offset="0.589844"/><stop stop-opacity="1" stop-color="rgb(94.004822%, 61.84082%, 36.955261%)" offset="0.59375"/><stop stop-opacity="1" stop-color="rgb(94.467163%, 62.554932%, 37.208557%)" offset="0.597656"/><stop stop-opacity="1" stop-color="rgb(94.93103%, 63.269043%, 37.461853%)" offset="0.601563"/><stop stop-opacity="1" stop-color="rgb(95.010376%, 63.594055%, 37.994385%)" offset="0.605469"/><stop stop-opacity="1" stop-color="rgb(95.091248%, 63.919067%, 38.528442%)" offset="0.609375"/><stop stop-opacity="1" stop-color="rgb(95.170593%, 64.242554%, 39.060974%)" offset="0.613281"/><stop stop-opacity="1" stop-color="rgb(95.249939%, 64.567566%, 39.595032%)" offset="0.617188"/><stop stop-opacity="1" stop-color="rgb(95.329285%, 64.892578%, 40.127563%)" offset="0.621094"/><stop stop-opacity="1" stop-color="rgb(95.40863%, 65.21759%, 40.661621%)" offset="0.625"/><stop stop-opacity="1" stop-color="rgb(95.487976%, 65.541077%, 41.194153%)" offset="0.628906"/><stop stop-opacity="1" stop-color="rgb(95.568848%, 65.866089%, 41.72821%)" offset="0.632813"/><stop stop-opacity="1" stop-color="rgb(95.648193%, 66.191101%, 42.260742%)" offset="0.636719"/><stop stop-opacity="1" stop-color="rgb(95.727539%, 66.516113%, 42.793274%)" offset="0.640625"/><stop stop-opacity="1" stop-color="rgb(95.806885%, 66.8396%, 43.325806%)" offset="0.644531"/><stop stop-opacity="1" stop-color="rgb(95.887756%, 67.164612%, 43.859863%)" offset="0.648438"/><stop stop-opacity="1" stop-color="rgb(95.967102%, 67.489624%, 44.392395%)" offset="0.652344"/><stop stop-opacity="1" stop-color="rgb(96.046448%, 67.814636%, 44.926453%)" offset="0.65625"/><stop stop-opacity="1" stop-color="rgb(96.125793%, 68.139648%, 45.458984%)" offset="0.660156"/><stop stop-opacity="1" stop-color="rgb(96.206665%, 68.464661%, 45.993042%)" offset="0.664062"/><stop stop-opacity="1" stop-color="rgb(96.286011%, 68.788147%, 46.525574%)" offset="0.667969"/><stop stop-opacity="1" stop-color="rgb(96.365356%, 69.113159%, 47.058105%)" offset="0.671875"/><stop stop-opacity="1" stop-color="rgb(96.444702%, 69.438171%, 47.590637%)" offset="0.675781"/><stop stop-opacity="1" stop-color="rgb(96.525574%, 69.763184%, 48.124695%)" offset="0.679688"/><stop stop-opacity="1" stop-color="rgb(96.604919%, 70.08667%, 48.657227%)" offset="0.683594"/><stop stop-opacity="1" stop-color="rgb(96.684265%, 70.411682%, 49.191284%)" offset="0.6875"/><stop stop-opacity="1" stop-color="rgb(96.763611%, 70.736694%, 49.723816%)" offset="0.691406"/><stop stop-opacity="1" stop-color="rgb(96.842957%, 71.061707%, 50.257874%)" offset="0.695312"/><stop stop-opacity="1" stop-color="rgb(96.922302%, 71.386719%, 50.790405%)" offset="0.699219"/><stop stop-opacity="1" stop-color="rgb(97.003174%, 71.711731%, 51.324463%)" offset="0.703125"/><stop stop-opacity="1" stop-color="rgb(97.08252%, 72.035217%, 51.856995%)" offset="0.707031"/><stop stop-opacity="1" stop-color="rgb(97.161865%, 72.360229%, 52.389526%)" offset="0.710938"/><stop stop-opacity="1" stop-color="rgb(97.241211%, 72.685242%, 52.922058%)" offset="0.714844"/><stop stop-opacity="1" stop-color="rgb(97.322083%, 73.010254%, 53.456116%)" offset="0.71875"/><stop stop-opacity="1" stop-color="rgb(97.401428%, 73.33374%, 53.988647%)" offset="0.722656"/><stop stop-opacity="1" stop-color="rgb(97.480774%, 73.658752%, 54.522705%)" offset="0.726562"/><stop stop-opacity="1" stop-color="rgb(97.56012%, 73.983765%, 55.055237%)" offset="0.730469"/><stop stop-opacity="1" stop-color="rgb(97.640991%, 74.308777%, 55.589294%)" offset="0.734375"/><stop stop-opacity="1" stop-color="rgb(97.720337%, 74.632263%, 56.121826%)" offset="0.738281"/><stop stop-opacity="1" stop-color="rgb(97.799683%, 74.957275%, 56.654358%)" offset="0.742187"/><stop stop-opacity="1" stop-color="rgb(97.879028%, 75.282288%, 57.18689%)" offset="0.746094"/><stop stop-opacity="1" stop-color="rgb(97.9599%, 75.6073%, 57.720947%)" offset="0.75"/><stop stop-opacity="1" stop-color="rgb(98.039246%, 75.932312%, 58.253479%)" offset="0.753906"/><stop stop-opacity="1" stop-color="rgb(98.118591%, 76.257324%, 58.787537%)" offset="0.757812"/><stop stop-opacity="1" stop-color="rgb(98.197937%, 76.580811%, 59.320068%)" offset="0.761719"/><stop stop-opacity="1" stop-color="rgb(98.277283%, 76.905823%, 59.854126%)" offset="0.765625"/><stop stop-opacity="1" stop-color="rgb(98.356628%, 77.230835%, 60.386658%)" offset="0.769531"/><stop stop-opacity="1" stop-color="rgb(98.4375%, 77.555847%, 60.920715%)" offset="0.773437"/><stop stop-opacity="1" stop-color="rgb(98.516846%, 77.879333%, 61.453247%)" offset="0.777344"/><stop stop-opacity="1" stop-color="rgb(98.596191%, 78.204346%, 61.985779%)" offset="0.78125"/><stop stop-opacity="1" stop-color="rgb(98.675537%, 78.529358%, 62.518311%)" offset="0.785156"/><stop stop-opacity="1" stop-color="rgb(98.756409%, 78.85437%, 63.052368%)" offset="0.789062"/><stop stop-opacity="1" stop-color="rgb(98.835754%, 79.177856%, 63.5849%)" offset="0.792969"/><stop stop-opacity="1" stop-color="rgb(98.9151%, 79.502869%, 64.118958%)" offset="0.796875"/><stop stop-opacity="1" stop-color="rgb(98.994446%, 79.827881%, 64.651489%)" offset="0.800781"/><stop stop-opacity="1" stop-color="rgb(99.075317%, 80.152893%, 65.185547%)" offset="0.804688"/><stop stop-opacity="1" stop-color="rgb(99.154663%, 80.477905%, 65.718079%)" offset="0.808594"/><stop stop-opacity="1" stop-color="rgb(99.234009%, 80.802917%, 66.25061%)" offset="0.8125"/><stop stop-opacity="1" stop-color="rgb(99.313354%, 81.126404%, 66.783142%)" offset="0.816406"/><stop stop-opacity="1" stop-color="rgb(99.394226%, 81.451416%, 67.3172%)" offset="0.820313"/><stop stop-opacity="1" stop-color="rgb(99.473572%, 81.776428%, 67.849731%)" offset="0.824219"/><stop stop-opacity="1" stop-color="rgb(99.552917%, 82.10144%, 68.383789%)" offset="0.828125"/><stop stop-opacity="1" stop-color="rgb(99.632263%, 82.424927%, 68.916321%)" offset="0.832031"/><stop stop-opacity="1" stop-color="rgb(99.711609%, 82.749939%, 69.450378%)" offset="0.835938"/><stop stop-opacity="1" stop-color="rgb(99.790955%, 83.074951%, 69.98291%)" offset="0.839844"/><stop stop-opacity="1" stop-color="rgb(99.871826%, 83.399963%, 70.516968%)" offset="0.84375"/><stop stop-opacity="1" stop-color="rgb(99.935913%, 83.659363%, 70.942688%)" offset="0.847656"/><stop stop-opacity="1" stop-color="rgb(100%, 83.918762%, 71.369934%)" offset="0.851562"/><stop stop-opacity="1" stop-color="rgb(100%, 83.918762%, 71.369934%)" offset="0.859375"/><stop stop-opacity="1" stop-color="rgb(100%, 83.918762%, 71.369934%)" offset="0.875"/><stop stop-opacity="1" stop-color="rgb(100%, 83.918762%, 71.369934%)" offset="1"/></linearGradient><clipPath id="f77aaf9db3"><rect x="0" width="63" y="0" height="64"/></clipPath><clipPath id="e10479cb7e"><rect x="0" width="33" y="0" height="43"/></clipPath><clipPath id="a90763e38f"><rect x="0" width="265" y="0" height="38"/></clipPath></defs><g clip-path="url(#74e59e9db1)"><g clip-path="url(#ee502c3f88)"><g transform="matrix(1, 0, 0, 1, 6, 155)"><g clip-path="url(#f77aaf9db3)"><g clip-path="url(#e5bb489833)"><g clip-path="url(#12a834ad27)"><path fill="url(#242823f0b5)" d="M 0.140625 0.832031 L 0.140625 63.550781 L 62.859375 63.550781 L 62.859375 0.832031 Z M 0.140625 0.832031 " fill-rule="nonzero"/></g></g></g></g></g></g><g transform="matrix(1, 0, 0, 1, 21, 165)"><g clip-path="url(#e10479cb7e)"><g fill="#ffffff" fill-opacity="1"><g transform="translate(0.999173, 34.300433)"><g><path d="M 8.71875 -25.171875 L 4.546875 0 L 1.375 0 L 5.546875 -25.171875 Z M 8.71875 -25.171875 "/></g></g></g><g fill="#ffffff" fill-opacity="1"><g transform="translate(8.325553, 34.300433)"><g><path d="M 8.71875 -25.171875 L 4.546875 0 L 1.375 0 L 5.546875 -25.171875 Z M 8.71875 -25.171875 "/></g></g></g><g fill="#ffffff" fill-opacity="1"><g transform="translate(15.651933, 34.300433)"><g><path d="M 8.71875 -25.171875 L 4.546875 0 L 1.375 0 L 5.546875 -25.171875 Z M 8.71875 -25.171875 "/></g></g></g><g fill="#ffffff" fill-opacity="1"><g transform="translate(22.978311, 34.300433)"><g><path d="M 8.71875 -25.171875 L 4.546875 0 L 1.375 0 L 5.546875 -25.171875 Z M 8.71875 -25.171875 "/></g></g></g></g></g><g transform="matrix(1, 0, 0, 1, 74, 168)"><g clip-path="url(#a90763e38f)"><g fill="#ffffff" fill-opacity="1"><g transform="translate(1.546813, 28.712935)"><g><path d="M 8.65625 0.34375 C 7.207031 0.34375 5.925781 0.09375 4.8125 -0.40625 C 3.707031 -0.90625 2.832031 -1.617188 2.1875 -2.546875 C 1.550781 -3.472656 1.226562 -4.601562 1.21875 -5.9375 L 5.015625 -5.9375 C 5.054688 -5.019531 5.390625 -4.242188 6.015625 -3.609375 C 6.640625 -2.984375 7.507812 -2.671875 8.625 -2.671875 C 9.582031 -2.671875 10.34375 -2.898438 10.90625 -3.359375 C 11.46875 -3.828125 11.75 -4.445312 11.75 -5.21875 C 11.75 -6.019531 11.5 -6.644531 11 -7.09375 C 10.5 -7.550781 9.835938 -7.921875 9.015625 -8.203125 C 8.191406 -8.484375 7.304688 -8.78125 6.359375 -9.09375 C 4.835938 -9.625 3.675781 -10.300781 2.875 -11.125 C 2.082031 -11.957031 1.6875 -13.054688 1.6875 -14.421875 C 1.664062 -15.585938 1.941406 -16.585938 2.515625 -17.421875 C 3.085938 -18.253906 3.867188 -18.898438 4.859375 -19.359375 C 5.859375 -19.828125 7.007812 -20.0625 8.3125 -20.0625 C 9.625 -20.0625 10.78125 -19.828125 11.78125 -19.359375 C 12.789062 -18.890625 13.582031 -18.226562 14.15625 -17.375 C 14.726562 -16.53125 15.035156 -15.53125 15.078125 -14.375 L 11.21875 -14.375 C 11.195312 -15.0625 10.925781 -15.671875 10.40625 -16.203125 C 9.894531 -16.742188 9.175781 -17.015625 8.25 -17.015625 C 7.46875 -17.035156 6.804688 -16.84375 6.265625 -16.4375 C 5.734375 -16.03125 5.46875 -15.441406 5.46875 -14.671875 C 5.46875 -14.015625 5.671875 -13.492188 6.078125 -13.109375 C 6.492188 -12.722656 7.054688 -12.398438 7.765625 -12.140625 C 8.484375 -11.878906 9.300781 -11.597656 10.21875 -11.296875 C 11.195312 -10.960938 12.085938 -10.566406 12.890625 -10.109375 C 13.703125 -9.660156 14.351562 -9.066406 14.84375 -8.328125 C 15.332031 -7.585938 15.578125 -6.632812 15.578125 -5.46875 C 15.578125 -4.4375 15.3125 -3.476562 14.78125 -2.59375 C 14.257812 -1.707031 13.484375 -0.992188 12.453125 -0.453125 C 11.421875 0.078125 10.15625 0.34375 8.65625 0.34375 Z M 8.65625 0.34375 "/></g></g></g><g fill="#ffffff" fill-opacity="1"><g transform="translate(17.655831, 28.712935)"><g><path d="M 10.84375 0.34375 C 8.851562 0.34375 7.144531 -0.0820312 5.71875 -0.9375 C 4.289062 -1.789062 3.191406 -2.984375 2.421875 -4.515625 C 1.648438 -6.046875 1.265625 -7.816406 1.265625 -9.828125 C 1.265625 -11.835938 1.648438 -13.613281 2.421875 -15.15625 C 3.191406 -16.695312 4.289062 -17.898438 5.71875 -18.765625 C 7.144531 -19.628906 8.851562 -20.0625 10.84375 -20.0625 C 13.207031 -20.0625 15.144531 -19.472656 16.65625 -18.296875 C 18.175781 -17.117188 19.125 -15.472656 19.5 -13.359375 L 15.515625 -13.359375 C 15.273438 -14.421875 14.753906 -15.257812 13.953125 -15.875 C 13.160156 -16.488281 12.109375 -16.796875 10.796875 -16.796875 C 8.972656 -16.796875 7.539062 -16.175781 6.5 -14.9375 C 5.46875 -13.695312 4.953125 -11.992188 4.953125 -9.828125 C 4.953125 -7.671875 5.46875 -5.976562 6.5 -4.75 C 7.539062 -3.519531 8.972656 -2.90625 10.796875 -2.90625 C 12.109375 -2.90625 13.160156 -3.191406 13.953125 -3.765625 C 14.753906 -4.335938 15.273438 -5.128906 15.515625 -6.140625 L 19.5 -6.140625 C 19.125 -4.109375 18.175781 -2.519531 16.65625 -1.375 C 15.144531 -0.226562 13.207031 0.34375 10.84375 0.34375 Z M 10.84375 0.34375 "/></g></g></g><g fill="#ffffff" fill-opacity="1"><g transform="translate(37.707665, 28.712935)"><g><path d="M 1.921875 0 L 1.921875 -19.71875 L 9.15625 -19.71875 C 10.726562 -19.71875 12.023438 -19.445312 13.046875 -18.90625 C 14.078125 -18.375 14.84375 -17.648438 15.34375 -16.734375 C 15.851562 -15.828125 16.109375 -14.820312 16.109375 -13.71875 C 16.109375 -12.519531 15.796875 -11.421875 15.171875 -10.421875 C 14.546875 -9.429688 13.5625 -8.707031 12.21875 -8.25 L 16.3125 0 L 12.171875 0 L 8.515625 -7.78125 L 5.515625 -7.78125 L 5.515625 0 Z M 5.515625 -10.421875 L 8.9375 -10.421875 C 10.132812 -10.421875 11.015625 -10.710938 11.578125 -11.296875 C 12.140625 -11.878906 12.421875 -12.648438 12.421875 -13.609375 C 12.421875 -14.546875 12.144531 -15.296875 11.59375 -15.859375 C 11.039062 -16.421875 10.144531 -16.703125 8.90625 -16.703125 L 5.515625 -16.703125 Z M 5.515625 -10.421875 "/></g></g></g><g fill="#ffffff" fill-opacity="1"><g transform="translate(54.548926, 28.712935)"><g><path d="M 1.921875 0 L 1.921875 -19.71875 L 5.515625 -19.71875 L 5.515625 0 Z M 1.921875 0 "/></g></g></g><g fill="#ffffff" fill-opacity="1"><g transform="translate(61.279678, 28.712935)"><g><path d="M 1.921875 0 L 1.921875 -19.71875 L 9.21875 -19.71875 C 10.789062 -19.71875 12.09375 -19.453125 13.125 -18.921875 C 14.15625 -18.398438 14.925781 -17.675781 15.4375 -16.75 C 15.945312 -15.832031 16.203125 -14.800781 16.203125 -13.65625 C 16.203125 -12.570312 15.957031 -11.570312 15.46875 -10.65625 C 14.976562 -9.75 14.21875 -9.019531 13.1875 -8.46875 C 12.15625 -7.914062 10.832031 -7.640625 9.21875 -7.640625 L 5.515625 -7.640625 L 5.515625 0 Z M 5.515625 -10.5625 L 8.984375 -10.5625 C 10.242188 -10.5625 11.148438 -10.835938 11.703125 -11.390625 C 12.253906 -11.941406 12.53125 -12.695312 12.53125 -13.65625 C 12.53125 -14.632812 12.253906 -15.398438 11.703125 -15.953125 C 11.148438 -16.515625 10.242188 -16.796875 8.984375 -16.796875 L 5.515625 -16.796875 Z M 5.515625 -10.5625 "/></g></g></g><g fill="#ffffff" fill-opacity="1"><g transform="translate(77.670332, 28.712935)"><g><path d="M 6.5 0 L 6.5 -16.8125 L 0.765625 -16.8125 L 0.765625 -19.71875 L 15.890625 -19.71875 L 15.890625 -16.8125 L 10.109375 -16.8125 L 10.109375 0 Z M 6.5 0 "/></g></g></g><g fill="#ffffff" fill-opacity="1"><g transform="translate(93.610379, 28.712935)"><g/></g></g><g fill="#ffffff" fill-opacity="1"><g transform="translate(99.608899, 28.712935)"><g><path d="M 10.84375 0.34375 C 8.851562 0.34375 7.144531 -0.0820312 5.71875 -0.9375 C 4.289062 -1.789062 3.191406 -2.984375 2.421875 -4.515625 C 1.648438 -6.046875 1.265625 -7.816406 1.265625 -9.828125 C 1.265625 -11.835938 1.648438 -13.613281 2.421875 -15.15625 C 3.191406 -16.695312 4.289062 -17.898438 5.71875 -18.765625 C 7.144531 -19.628906 8.851562 -20.0625 10.84375 -20.0625 C 13.207031 -20.0625 15.144531 -19.472656 16.65625 -18.296875 C 18.175781 -17.117188 19.125 -15.472656 19.5 -13.359375 L 15.515625 -13.359375 C 15.273438 -14.421875 14.753906 -15.257812 13.953125 -15.875 C 13.160156 -16.488281 12.109375 -16.796875 10.796875 -16.796875 C 8.972656 -16.796875 7.539062 -16.175781 6.5 -14.9375 C 5.46875 -13.695312 4.953125 -11.992188 4.953125 -9.828125 C 4.953125 -7.671875 5.46875 -5.976562 6.5 -4.75 C 7.539062 -3.519531 8.972656 -2.90625 10.796875 -2.90625 C 12.109375 -2.90625 13.160156 -3.191406 13.953125 -3.765625 C 14.753906 -4.335938 15.273438 -5.128906 15.515625 -6.140625 L 19.5 -6.140625 C 19.125 -4.109375 18.175781 -2.519531 16.65625 -1.375 C 15.144531 -0.226562 13.207031 0.34375 10.84375 0.34375 Z M 10.84375 0.34375 "/></g></g></g><g fill="#ffffff" fill-opacity="1"><g transform="translate(119.660733, 28.712935)"><g><path d="M 11.15625 0.34375 C 9.1875 0.34375 7.460938 -0.0859375 5.984375 -0.953125 C 4.515625 -1.816406 3.359375 -3.015625 2.515625 -4.546875 C 1.679688 -6.078125 1.265625 -7.847656 1.265625 -9.859375 C 1.265625 -11.867188 1.679688 -13.640625 2.515625 -15.171875 C 3.359375 -16.703125 4.515625 -17.898438 5.984375 -18.765625 C 7.460938 -19.628906 9.1875 -20.0625 11.15625 -20.0625 C 13.101562 -20.0625 14.816406 -19.628906 16.296875 -18.765625 C 17.785156 -17.898438 18.941406 -16.703125 19.765625 -15.171875 C 20.597656 -13.640625 21.015625 -11.867188 21.015625 -9.859375 C 21.015625 -7.847656 20.597656 -6.078125 19.765625 -4.546875 C 18.941406 -3.015625 17.785156 -1.816406 16.296875 -0.953125 C 14.816406 -0.0859375 13.101562 0.34375 11.15625 0.34375 Z M 11.15625 -2.90625 C 13.03125 -2.90625 14.523438 -3.523438 15.640625 -4.765625 C 16.765625 -6.003906 17.328125 -7.703125 17.328125 -9.859375 C 17.328125 -12.015625 16.765625 -13.710938 15.640625 -14.953125 C 14.523438 -16.191406 13.03125 -16.8125 11.15625 -16.8125 C 9.28125 -16.8125 7.773438 -16.191406 6.640625 -14.953125 C 5.515625 -13.710938 4.953125 -12.015625 4.953125 -9.859375 C 4.953125 -7.703125 5.515625 -6.003906 6.640625 -4.765625 C 7.773438 -3.523438 9.28125 -2.90625 11.15625 -2.90625 Z M 11.15625 -2.90625 "/></g></g></g><g fill="#ffffff" fill-opacity="1"><g transform="translate(141.233375, 28.712935)"><g><path d="M 1.921875 0 L 1.921875 -19.71875 L 5.515625 -19.71875 L 5.515625 -2.8125 L 14.25 -2.8125 L 14.25 0 Z M 1.921875 0 "/></g></g></g><g fill="#ffffff" fill-opacity="1"><g transform="translate(156.046902, 28.712935)"><g><path d="M 1.921875 0 L 1.921875 -19.71875 L 5.515625 -19.71875 L 5.515625 -2.8125 L 14.25 -2.8125 L 14.25 0 Z M 1.921875 0 "/></g></g></g><g fill="#ffffff" fill-opacity="1"><g transform="translate(170.860429, 28.712935)"><g><path d="M 1.921875 0 L 1.921875 -19.71875 L 14.796875 -19.71875 L 14.796875 -16.8125 L 5.515625 -16.8125 L 5.515625 -11.40625 L 13.9375 -11.40625 L 13.9375 -8.59375 L 5.515625 -8.59375 L 5.515625 -2.90625 L 14.796875 -2.90625 L 14.796875 0 Z M 1.921875 0 "/></g></g></g><g fill="#ffffff" fill-opacity="1"><g transform="translate(186.43436, 28.712935)"><g><path d="M 10.84375 0.34375 C 8.851562 0.34375 7.144531 -0.0820312 5.71875 -0.9375 C 4.289062 -1.789062 3.191406 -2.984375 2.421875 -4.515625 C 1.648438 -6.046875 1.265625 -7.816406 1.265625 -9.828125 C 1.265625 -11.835938 1.648438 -13.613281 2.421875 -15.15625 C 3.191406 -16.695312 4.289062 -17.898438 5.71875 -18.765625 C 7.144531 -19.628906 8.851562 -20.0625 10.84375 -20.0625 C 13.207031 -20.0625 15.144531 -19.472656 16.65625 -18.296875 C 18.175781 -17.117188 19.125 -15.472656 19.5 -13.359375 L 15.515625 -13.359375 C 15.273438 -14.421875 14.753906 -15.257812 13.953125 -15.875 C 13.160156 -16.488281 12.109375 -16.796875 10.796875 -16.796875 C 8.972656 -16.796875 7.539062 -16.175781 6.5 -14.9375 C 5.46875 -13.695312 4.953125 -11.992188 4.953125 -9.828125 C 4.953125 -7.671875 5.46875 -5.976562 6.5 -4.75 C 7.539062 -3.519531 8.972656 -2.90625 10.796875 -2.90625 C 12.109375 -2.90625 13.160156 -3.191406 13.953125 -3.765625 C 14.753906 -4.335938 15.273438 -5.128906 15.515625 -6.140625 L 19.5 -6.140625 C 19.125 -4.109375 18.175781 -2.519531 16.65625 -1.375 C 15.144531 -0.226562 13.207031 0.34375 10.84375 0.34375 Z M 10.84375 0.34375 "/></g></g></g><g fill="#ffffff" fill-opacity="1"><g transform="translate(206.486195, 28.712935)"><g><path d="M 6.5 0 L 6.5 -16.8125 L 0.765625 -16.8125 L 0.765625 -19.71875 L 15.890625 -19.71875 L 15.890625 -16.8125 L 10.109375 -16.8125 L 10.109375 0 Z M 6.5 0 "/></g></g></g><g fill="#ffffff" fill-opacity="1"><g transform="translate(222.426228, 28.712935)"><g><path d="M 1.921875 0 L 1.921875 -19.71875 L 5.515625 -19.71875 L 5.515625 0 Z M 1.921875 0 "/></g></g></g><g fill="#ffffff" fill-opacity="1"><g transform="translate(229.156992, 28.712935)"><g><path d="M 7.640625 0 L 0.421875 -19.71875 L 4.28125 -19.71875 L 9.859375 -3.6875 L 15.46875 -19.71875 L 19.265625 -19.71875 L 12.0625 0 Z M 7.640625 0 "/></g></g></g><g fill="#ffffff" fill-opacity="1"><g transform="translate(248.138653, 28.712935)"><g><path d="M 1.921875 0 L 1.921875 -19.71875 L 14.796875 -19.71875 L 14.796875 -16.8125 L 5.515625 -16.8125 L 5.515625 -11.40625 L 13.9375 -11.40625 L 13.9375 -8.59375 L 5.515625 -8.59375 L 5.515625 -2.90625 L 14.796875 -2.90625 L 14.796875 0 Z M 1.921875 0 "/></g></g></g></g></g></svg>