<svg xmlns="http://www.w3.org/2000/svg" xmlns:xlink="http://www.w3.org/1999/xlink" width="500" zoomAndPan="magnify" viewBox="0 0 375 374.999991" height="500" preserveAspectRatio="xMidYMid meet" version="1.0"><defs><filter x="0%" y="0%" width="100%" height="100%" id="6658bad0e8"><feColorMatrix values="0 0 0 0 1 0 0 0 0 1 0 0 0 0 1 0 0 0 1 0" color-interpolation-filters="sRGB"/></filter><g/><clipPath id="8a803c0f8d"><path d="M 0 1.492188 L 375 1.492188 L 375 136.449219 L 0 136.449219 Z M 0 1.492188 " clip-rule="nonzero"/></clipPath><clipPath id="6ebdaf512f"><path d="M 0 0.492188 L 375 0.492188 L 375 135.449219 L 0 135.449219 Z M 0 0.492188 " clip-rule="nonzero"/></clipPath><clipPath id="21d0cfcedc"><path d="M 35.34375 0.492188 L 375 0.492188 L 375 135.449219 L 35.34375 135.449219 Z M 35.34375 0.492188 " clip-rule="nonzero"/></clipPath><linearGradient x1="96.03287" gradientTransform="matrix(0.828361, 0, 0, 0.827428, 15.777215, 56.796146)" y1="167.467131" x2="382.600428" gradientUnits="userSpaceOnUse" y2="-119.100429" id="2b7c5b3b05"><stop stop-opacity="1" stop-color="rgb(27.449036%, 7.058716%, 28.239441%)" offset="0"/><stop stop-opacity="1" stop-color="rgb(27.449036%, 7.058716%, 28.239441%)" offset="0.25"/><stop stop-opacity="1" stop-color="rgb(27.449036%, 7.058716%, 28.239441%)" offset="0.284577"/><stop stop-opacity="1" stop-color="rgb(27.449036%, 7.058716%, 28.239441%)" offset="0.3125"/><stop stop-opacity="1" stop-color="rgb(27.926636%, 7.237244%, 28.233337%)" offset="0.316406"/><stop stop-opacity="1" stop-color="rgb(28.405762%, 7.417297%, 28.22876%)" offset="0.320312"/><stop stop-opacity="1" stop-color="rgb(29.367065%, 7.775879%, 28.218079%)" offset="0.324219"/><stop stop-opacity="1" stop-color="rgb(30.328369%, 8.135986%, 28.208923%)" offset="0.328125"/><stop stop-opacity="1" stop-color="rgb(31.289673%, 8.494568%, 28.198242%)" offset="0.332031"/><stop stop-opacity="1" stop-color="rgb(32.250977%, 8.854675%, 28.189087%)" offset="0.335937"/><stop stop-opacity="1" stop-color="rgb(33.21228%, 9.213257%, 28.178406%)" offset="0.339844"/><stop stop-opacity="1" stop-color="rgb(34.173584%, 9.571838%, 28.16925%)" offset="0.34375"/><stop stop-opacity="1" stop-color="rgb(35.134888%, 9.93042%, 28.158569%)" offset="0.347656"/><stop stop-opacity="1" stop-color="rgb(36.096191%, 10.290527%, 28.149414%)" offset="0.351562"/><stop stop-opacity="1" stop-color="rgb(37.057495%, 10.649109%, 28.138733%)" offset="0.355469"/><stop stop-opacity="1" stop-color="rgb(38.018799%, 11.009216%, 28.129578%)" offset="0.359375"/><stop stop-opacity="1" stop-color="rgb(38.980103%, 11.367798%, 28.120422%)" offset="0.363281"/><stop stop-opacity="1" stop-color="rgb(39.941406%, 11.727905%, 28.111267%)" offset="0.367187"/><stop stop-opacity="1" stop-color="rgb(40.901184%, 12.086487%, 28.100586%)" offset="0.371094"/><stop stop-opacity="1" stop-color="rgb(41.862488%, 12.446594%, 28.091431%)" offset="0.375"/><stop stop-opacity="1" stop-color="rgb(42.823792%, 12.805176%, 28.08075%)" offset="0.378906"/><stop stop-opacity="1" stop-color="rgb(43.785095%, 13.165283%, 28.071594%)" offset="0.382812"/><stop stop-opacity="1" stop-color="rgb(44.746399%, 13.523865%, 28.060913%)" offset="0.386719"/><stop stop-opacity="1" stop-color="rgb(45.707703%, 13.883972%, 28.051758%)" offset="0.390625"/><stop stop-opacity="1" stop-color="rgb(46.669006%, 14.242554%, 28.041077%)" offset="0.394531"/><stop stop-opacity="1" stop-color="rgb(47.63031%, 14.602661%, 28.031921%)" offset="0.398438"/><stop stop-opacity="1" stop-color="rgb(48.591614%, 14.961243%, 28.02124%)" offset="0.402344"/><stop stop-opacity="1" stop-color="rgb(49.552917%, 15.32135%, 28.012085%)" offset="0.40625"/><stop stop-opacity="1" stop-color="rgb(50.514221%, 15.679932%, 28.001404%)" offset="0.410156"/><stop stop-opacity="1" stop-color="rgb(51.475525%, 16.040039%, 27.992249%)" offset="0.414062"/><stop stop-opacity="1" stop-color="rgb(52.436829%, 16.398621%, 27.981567%)" offset="0.417969"/><stop stop-opacity="1" stop-color="rgb(53.398132%, 16.758728%, 27.972412%)" offset="0.421875"/><stop stop-opacity="1" stop-color="rgb(54.359436%, 17.11731%, 27.961731%)" offset="0.425781"/><stop stop-opacity="1" stop-color="rgb(55.32074%, 17.477417%, 27.952576%)" offset="0.429688"/><stop stop-opacity="1" stop-color="rgb(56.282043%, 17.835999%, 27.941895%)" offset="0.433594"/><stop stop-opacity="1" stop-color="rgb(57.243347%, 18.196106%, 27.932739%)" offset="0.4375"/><stop stop-opacity="1" stop-color="rgb(58.204651%, 18.554688%, 27.922058%)" offset="0.441406"/><stop stop-opacity="1" stop-color="rgb(59.165955%, 18.914795%, 27.912903%)" offset="0.445312"/><stop stop-opacity="1" stop-color="rgb(60.127258%, 19.273376%, 27.902222%)" offset="0.449219"/><stop stop-opacity="1" stop-color="rgb(61.088562%, 19.631958%, 27.893066%)" offset="0.453125"/><stop stop-opacity="1" stop-color="rgb(62.049866%, 19.99054%, 27.882385%)" offset="0.457031"/><stop stop-opacity="1" stop-color="rgb(63.011169%, 20.350647%, 27.87323%)" offset="0.460938"/><stop stop-opacity="1" stop-color="rgb(63.972473%, 20.709229%, 27.862549%)" offset="0.464844"/><stop stop-opacity="1" stop-color="rgb(64.933777%, 21.069336%, 27.853394%)" offset="0.46875"/><stop stop-opacity="1" stop-color="rgb(65.872192%, 21.711731%, 27.934265%)" offset="0.472656"/><stop stop-opacity="1" stop-color="rgb(66.810608%, 22.354126%, 28.016663%)" offset="0.476562"/><stop stop-opacity="1" stop-color="rgb(67.695618%, 23.640442%, 28.308105%)" offset="0.480469"/><stop stop-opacity="1" stop-color="rgb(68.582153%, 24.928284%, 28.599548%)" offset="0.484375"/><stop stop-opacity="1" stop-color="rgb(69.468689%, 26.2146%, 28.890991%)" offset="0.488281"/><stop stop-opacity="1" stop-color="rgb(70.355225%, 27.500916%, 29.182434%)" offset="0.492188"/><stop stop-opacity="1" stop-color="rgb(71.240234%, 28.787231%, 29.472351%)" offset="0.496094"/><stop stop-opacity="1" stop-color="rgb(72.12677%, 30.075073%, 29.763794%)" offset="0.5"/><stop stop-opacity="1" stop-color="rgb(73.013306%, 31.361389%, 30.055237%)" offset="0.503906"/><stop stop-opacity="1" stop-color="rgb(73.899841%, 32.647705%, 30.34668%)" offset="0.507812"/><stop stop-opacity="1" stop-color="rgb(74.784851%, 33.934021%, 30.638123%)" offset="0.511719"/><stop stop-opacity="1" stop-color="rgb(75.671387%, 35.221863%, 30.929565%)" offset="0.515625"/><stop stop-opacity="1" stop-color="rgb(76.557922%, 36.508179%, 31.221008%)" offset="0.519531"/><stop stop-opacity="1" stop-color="rgb(77.444458%, 37.794495%, 31.512451%)" offset="0.523438"/><stop stop-opacity="1" stop-color="rgb(78.329468%, 39.080811%, 31.803894%)" offset="0.527344"/><stop stop-opacity="1" stop-color="rgb(79.216003%, 40.367126%, 32.095337%)" offset="0.53125"/><stop stop-opacity="1" stop-color="rgb(80.102539%, 41.653442%, 32.385254%)" offset="0.535156"/><stop stop-opacity="1" stop-color="rgb(80.989075%, 42.941284%, 32.676697%)" offset="0.539062"/><stop stop-opacity="1" stop-color="rgb(81.874084%, 44.2276%, 32.96814%)" offset="0.542969"/><stop stop-opacity="1" stop-color="rgb(82.76062%, 45.513916%, 33.259583%)" offset="0.546875"/><stop stop-opacity="1" stop-color="rgb(83.647156%, 46.800232%, 33.551025%)" offset="0.550781"/><stop stop-opacity="1" stop-color="rgb(84.533691%, 48.088074%, 33.842468%)" offset="0.554688"/><stop stop-opacity="1" stop-color="rgb(85.418701%, 49.37439%, 34.133911%)" offset="0.558594"/><stop stop-opacity="1" stop-color="rgb(86.305237%, 50.660706%, 34.425354%)" offset="0.5625"/><stop stop-opacity="1" stop-color="rgb(87.191772%, 51.947021%, 34.715271%)" offset="0.566406"/><stop stop-opacity="1" stop-color="rgb(88.078308%, 53.234863%, 35.006714%)" offset="0.570312"/><stop stop-opacity="1" stop-color="rgb(88.963318%, 54.521179%, 35.298157%)" offset="0.574219"/><stop stop-opacity="1" stop-color="rgb(89.849854%, 55.807495%, 35.5896%)" offset="0.578125"/><stop stop-opacity="1" stop-color="rgb(90.736389%, 57.093811%, 35.881042%)" offset="0.582031"/><stop stop-opacity="1" stop-color="rgb(91.622925%, 58.381653%, 36.172485%)" offset="0.585938"/><stop stop-opacity="1" stop-color="rgb(92.507935%, 59.667969%, 36.463928%)" offset="0.589844"/><stop stop-opacity="1" stop-color="rgb(93.39447%, 60.954285%, 36.755371%)" offset="0.59375"/><stop stop-opacity="1" stop-color="rgb(94.165039%, 62.124634%, 37.129211%)" offset="0.597656"/><stop stop-opacity="1" stop-color="rgb(94.937134%, 63.294983%, 37.504578%)" offset="0.601563"/><stop stop-opacity="1" stop-color="rgb(95.063782%, 63.809204%, 38.348389%)" offset="0.605469"/><stop stop-opacity="1" stop-color="rgb(95.19043%, 64.323425%, 39.193726%)" offset="0.609375"/><stop stop-opacity="1" stop-color="rgb(95.315552%, 64.837646%, 40.039062%)" offset="0.613281"/><stop stop-opacity="1" stop-color="rgb(95.4422%, 65.353394%, 40.884399%)" offset="0.617188"/><stop stop-opacity="1" stop-color="rgb(95.568848%, 65.867615%, 41.72821%)" offset="0.621094"/><stop stop-opacity="1" stop-color="rgb(95.695496%, 66.381836%, 42.573547%)" offset="0.625"/><stop stop-opacity="1" stop-color="rgb(95.820618%, 66.896057%, 43.418884%)" offset="0.628906"/><stop stop-opacity="1" stop-color="rgb(95.947266%, 67.411804%, 44.264221%)" offset="0.632812"/><stop stop-opacity="1" stop-color="rgb(96.073914%, 67.926025%, 45.108032%)" offset="0.636719"/><stop stop-opacity="1" stop-color="rgb(96.200562%, 68.440247%, 45.953369%)" offset="0.640625"/><stop stop-opacity="1" stop-color="rgb(96.325684%, 68.954468%, 46.79718%)" offset="0.644531"/><stop stop-opacity="1" stop-color="rgb(96.452332%, 69.468689%, 47.642517%)" offset="0.648438"/><stop stop-opacity="1" stop-color="rgb(96.578979%, 69.98291%, 48.487854%)" offset="0.652344"/><stop stop-opacity="1" stop-color="rgb(96.705627%, 70.498657%, 49.333191%)" offset="0.65625"/><stop stop-opacity="1" stop-color="rgb(96.83075%, 71.012878%, 50.177002%)" offset="0.660156"/><stop stop-opacity="1" stop-color="rgb(96.957397%, 71.5271%, 51.022339%)" offset="0.664063"/><stop stop-opacity="1" stop-color="rgb(97.084045%, 72.041321%, 51.867676%)" offset="0.667969"/><stop stop-opacity="1" stop-color="rgb(97.210693%, 72.557068%, 52.713013%)" offset="0.671875"/><stop stop-opacity="1" stop-color="rgb(97.335815%, 73.071289%, 53.556824%)" offset="0.675781"/><stop stop-opacity="1" stop-color="rgb(97.462463%, 73.58551%, 54.402161%)" offset="0.679688"/><stop stop-opacity="1" stop-color="rgb(97.589111%, 74.099731%, 55.245972%)" offset="0.683594"/><stop stop-opacity="1" stop-color="rgb(97.715759%, 74.615479%, 56.091309%)" offset="0.6875"/><stop stop-opacity="1" stop-color="rgb(97.840881%, 75.1297%, 56.936646%)" offset="0.691406"/><stop stop-opacity="1" stop-color="rgb(97.967529%, 75.643921%, 57.781982%)" offset="0.695312"/><stop stop-opacity="1" stop-color="rgb(98.094177%, 76.158142%, 58.625793%)" offset="0.699219"/><stop stop-opacity="1" stop-color="rgb(98.220825%, 76.672363%, 59.47113%)" offset="0.703125"/><stop stop-opacity="1" stop-color="rgb(98.347473%, 77.186584%, 60.314941%)" offset="0.707031"/><stop stop-opacity="1" stop-color="rgb(98.474121%, 77.702332%, 61.160278%)" offset="0.710938"/><stop stop-opacity="1" stop-color="rgb(98.599243%, 78.216553%, 62.005615%)" offset="0.714844"/><stop stop-opacity="1" stop-color="rgb(98.725891%, 78.730774%, 62.850952%)" offset="0.71875"/><stop stop-opacity="1" stop-color="rgb(98.852539%, 79.244995%, 63.694763%)" offset="0.722656"/><stop stop-opacity="1" stop-color="rgb(98.979187%, 79.760742%, 64.5401%)" offset="0.726563"/><stop stop-opacity="1" stop-color="rgb(99.104309%, 80.274963%, 65.385437%)" offset="0.730469"/><stop stop-opacity="1" stop-color="rgb(99.230957%, 80.789185%, 66.230774%)" offset="0.734375"/><stop stop-opacity="1" stop-color="rgb(99.357605%, 81.303406%, 67.074585%)" offset="0.738281"/><stop stop-opacity="1" stop-color="rgb(99.484253%, 81.819153%, 67.919922%)" offset="0.742188"/><stop stop-opacity="1" stop-color="rgb(99.609375%, 82.333374%, 68.763733%)" offset="0.746094"/><stop stop-opacity="1" stop-color="rgb(99.736023%, 82.847595%, 69.60907%)" offset="0.75"/><stop stop-opacity="1" stop-color="rgb(99.862671%, 83.361816%, 70.454407%)" offset="0.753906"/><stop stop-opacity="1" stop-color="rgb(99.989319%, 83.876038%, 71.299744%)" offset="0.757812"/><stop stop-opacity="1" stop-color="rgb(99.993896%, 83.8974%, 71.334839%)" offset="0.765625"/><stop stop-opacity="1" stop-color="rgb(100%, 83.918762%, 71.369934%)" offset="0.78125"/><stop stop-opacity="1" stop-color="rgb(100%, 83.918762%, 71.369934%)" offset="0.8125"/><stop stop-opacity="1" stop-color="rgb(100%, 83.918762%, 71.369934%)" offset="0.875"/><stop stop-opacity="1" stop-color="rgb(100%, 83.918762%, 71.369934%)" offset="1"/></linearGradient><clipPath id="3a55e9951e"><rect x="0" width="375" y="0" height="136"/></clipPath><clipPath id="07077acabc"><path d="M 0 0.492188 L 375 0.492188 L 375 135.449219 L 0 135.449219 Z M 0 0.492188 " clip-rule="nonzero"/></clipPath><clipPath id="c675ec621f"><rect x="0" width="375" y="0" height="136"/></clipPath><clipPath id="b26c57aa19"><rect x="0" width="375" y="0" height="136"/></clipPath><mask id="5315d20927"><g filter="url(#6658bad0e8)"><g transform="matrix(1, 0, 0, 1, 0, 0)"><g clip-path="url(#b26c57aa19)"><g clip-path="url(#07077acabc)"><g transform="matrix(1, 0, 0, 1, 0, 0)"><g clip-path="url(#c675ec621f)"><g fill="#000000" fill-opacity="1"><g transform="translate(91.367042, 77.491607)"><g><path d="M 8.65625 0.34375 C 7.207031 0.34375 5.925781 0.09375 4.8125 -0.40625 C 3.707031 -0.90625 2.832031 -1.617188 2.1875 -2.546875 C 1.550781 -3.472656 1.226562 -4.601562 1.21875 -5.9375 L 5.015625 -5.9375 C 5.054688 -5.019531 5.390625 -4.242188 6.015625 -3.609375 C 6.640625 -2.984375 7.507812 -2.671875 8.625 -2.671875 C 9.582031 -2.671875 10.34375 -2.898438 10.90625 -3.359375 C 11.46875 -3.828125 11.75 -4.445312 11.75 -5.21875 C 11.75 -6.019531 11.5 -6.644531 11 -7.09375 C 10.5 -7.550781 9.835938 -7.921875 9.015625 -8.203125 C 8.191406 -8.484375 7.304688 -8.78125 6.359375 -9.09375 C 4.835938 -9.625 3.675781 -10.300781 2.875 -11.125 C 2.082031 -11.957031 1.6875 -13.054688 1.6875 -14.421875 C 1.664062 -15.585938 1.941406 -16.585938 2.515625 -17.421875 C 3.085938 -18.253906 3.867188 -18.898438 4.859375 -19.359375 C 5.859375 -19.828125 7.007812 -20.0625 8.3125 -20.0625 C 9.625 -20.0625 10.78125 -19.828125 11.78125 -19.359375 C 12.789062 -18.890625 13.582031 -18.226562 14.15625 -17.375 C 14.726562 -16.53125 15.035156 -15.53125 15.078125 -14.375 L 11.21875 -14.375 C 11.195312 -15.0625 10.925781 -15.671875 10.40625 -16.203125 C 9.894531 -16.742188 9.175781 -17.015625 8.25 -17.015625 C 7.46875 -17.035156 6.804688 -16.84375 6.265625 -16.4375 C 5.734375 -16.03125 5.46875 -15.441406 5.46875 -14.671875 C 5.46875 -14.015625 5.671875 -13.492188 6.078125 -13.109375 C 6.492188 -12.722656 7.054688 -12.398438 7.765625 -12.140625 C 8.484375 -11.878906 9.300781 -11.597656 10.21875 -11.296875 C 11.195312 -10.960938 12.085938 -10.566406 12.890625 -10.109375 C 13.703125 -9.660156 14.351562 -9.066406 14.84375 -8.328125 C 15.332031 -7.585938 15.578125 -6.632812 15.578125 -5.46875 C 15.578125 -4.4375 15.3125 -3.476562 14.78125 -2.59375 C 14.257812 -1.707031 13.484375 -0.992188 12.453125 -0.453125 C 11.421875 0.078125 10.15625 0.34375 8.65625 0.34375 Z M 8.65625 0.34375 "/></g></g></g><g fill="#000000" fill-opacity="1"><g transform="translate(107.47606, 77.491607)"><g><path d="M 10.84375 0.34375 C 8.851562 0.34375 7.144531 -0.0820312 5.71875 -0.9375 C 4.289062 -1.789062 3.191406 -2.984375 2.421875 -4.515625 C 1.648438 -6.046875 1.265625 -7.816406 1.265625 -9.828125 C 1.265625 -11.835938 1.648438 -13.613281 2.421875 -15.15625 C 3.191406 -16.695312 4.289062 -17.898438 5.71875 -18.765625 C 7.144531 -19.628906 8.851562 -20.0625 10.84375 -20.0625 C 13.207031 -20.0625 15.144531 -19.472656 16.65625 -18.296875 C 18.175781 -17.117188 19.125 -15.472656 19.5 -13.359375 L 15.515625 -13.359375 C 15.273438 -14.421875 14.753906 -15.257812 13.953125 -15.875 C 13.160156 -16.488281 12.109375 -16.796875 10.796875 -16.796875 C 8.972656 -16.796875 7.539062 -16.175781 6.5 -14.9375 C 5.46875 -13.695312 4.953125 -11.992188 4.953125 -9.828125 C 4.953125 -7.671875 5.46875 -5.976562 6.5 -4.75 C 7.539062 -3.519531 8.972656 -2.90625 10.796875 -2.90625 C 12.109375 -2.90625 13.160156 -3.191406 13.953125 -3.765625 C 14.753906 -4.335938 15.273438 -5.128906 15.515625 -6.140625 L 19.5 -6.140625 C 19.125 -4.109375 18.175781 -2.519531 16.65625 -1.375 C 15.144531 -0.226562 13.207031 0.34375 10.84375 0.34375 Z M 10.84375 0.34375 "/></g></g></g><g fill="#000000" fill-opacity="1"><g transform="translate(127.527895, 77.491607)"><g><path d="M 1.921875 0 L 1.921875 -19.71875 L 9.15625 -19.71875 C 10.726562 -19.71875 12.023438 -19.445312 13.046875 -18.90625 C 14.078125 -18.375 14.84375 -17.648438 15.34375 -16.734375 C 15.851562 -15.828125 16.109375 -14.820312 16.109375 -13.71875 C 16.109375 -12.519531 15.796875 -11.421875 15.171875 -10.421875 C 14.546875 -9.429688 13.5625 -8.707031 12.21875 -8.25 L 16.3125 0 L 12.171875 0 L 8.515625 -7.78125 L 5.515625 -7.78125 L 5.515625 0 Z M 5.515625 -10.421875 L 8.9375 -10.421875 C 10.132812 -10.421875 11.015625 -10.710938 11.578125 -11.296875 C 12.140625 -11.878906 12.421875 -12.648438 12.421875 -13.609375 C 12.421875 -14.546875 12.144531 -15.296875 11.59375 -15.859375 C 11.039062 -16.421875 10.144531 -16.703125 8.90625 -16.703125 L 5.515625 -16.703125 Z M 5.515625 -10.421875 "/></g></g></g><g fill="#000000" fill-opacity="1"><g transform="translate(144.369156, 77.491607)"><g><path d="M 1.921875 0 L 1.921875 -19.71875 L 5.515625 -19.71875 L 5.515625 0 Z M 1.921875 0 "/></g></g></g><g fill="#000000" fill-opacity="1"><g transform="translate(151.099907, 77.491607)"><g><path d="M 1.921875 0 L 1.921875 -19.71875 L 9.21875 -19.71875 C 10.789062 -19.71875 12.09375 -19.453125 13.125 -18.921875 C 14.15625 -18.398438 14.925781 -17.675781 15.4375 -16.75 C 15.945312 -15.832031 16.203125 -14.800781 16.203125 -13.65625 C 16.203125 -12.570312 15.957031 -11.570312 15.46875 -10.65625 C 14.976562 -9.75 14.21875 -9.019531 13.1875 -8.46875 C 12.15625 -7.914062 10.832031 -7.640625 9.21875 -7.640625 L 5.515625 -7.640625 L 5.515625 0 Z M 5.515625 -10.5625 L 8.984375 -10.5625 C 10.242188 -10.5625 11.148438 -10.835938 11.703125 -11.390625 C 12.253906 -11.941406 12.53125 -12.695312 12.53125 -13.65625 C 12.53125 -14.632812 12.253906 -15.398438 11.703125 -15.953125 C 11.148438 -16.515625 10.242188 -16.796875 8.984375 -16.796875 L 5.515625 -16.796875 Z M 5.515625 -10.5625 "/></g></g></g><g fill="#000000" fill-opacity="1"><g transform="translate(167.490561, 77.491607)"><g><path d="M 6.5 0 L 6.5 -16.8125 L 0.765625 -16.8125 L 0.765625 -19.71875 L 15.890625 -19.71875 L 15.890625 -16.8125 L 10.109375 -16.8125 L 10.109375 0 Z M 6.5 0 "/></g></g></g><g fill="#000000" fill-opacity="1"><g transform="translate(183.430608, 77.491607)"><g/></g></g><g fill="#000000" fill-opacity="1"><g transform="translate(189.429129, 77.491607)"><g><path d="M 10.84375 0.34375 C 8.851562 0.34375 7.144531 -0.0820312 5.71875 -0.9375 C 4.289062 -1.789062 3.191406 -2.984375 2.421875 -4.515625 C 1.648438 -6.046875 1.265625 -7.816406 1.265625 -9.828125 C 1.265625 -11.835938 1.648438 -13.613281 2.421875 -15.15625 C 3.191406 -16.695312 4.289062 -17.898438 5.71875 -18.765625 C 7.144531 -19.628906 8.851562 -20.0625 10.84375 -20.0625 C 13.207031 -20.0625 15.144531 -19.472656 16.65625 -18.296875 C 18.175781 -17.117188 19.125 -15.472656 19.5 -13.359375 L 15.515625 -13.359375 C 15.273438 -14.421875 14.753906 -15.257812 13.953125 -15.875 C 13.160156 -16.488281 12.109375 -16.796875 10.796875 -16.796875 C 8.972656 -16.796875 7.539062 -16.175781 6.5 -14.9375 C 5.46875 -13.695312 4.953125 -11.992188 4.953125 -9.828125 C 4.953125 -7.671875 5.46875 -5.976562 6.5 -4.75 C 7.539062 -3.519531 8.972656 -2.90625 10.796875 -2.90625 C 12.109375 -2.90625 13.160156 -3.191406 13.953125 -3.765625 C 14.753906 -4.335938 15.273438 -5.128906 15.515625 -6.140625 L 19.5 -6.140625 C 19.125 -4.109375 18.175781 -2.519531 16.65625 -1.375 C 15.144531 -0.226562 13.207031 0.34375 10.84375 0.34375 Z M 10.84375 0.34375 "/></g></g></g><g fill="#000000" fill-opacity="1"><g transform="translate(209.480963, 77.491607)"><g><path d="M 11.15625 0.34375 C 9.1875 0.34375 7.460938 -0.0859375 5.984375 -0.953125 C 4.515625 -1.816406 3.359375 -3.015625 2.515625 -4.546875 C 1.679688 -6.078125 1.265625 -7.847656 1.265625 -9.859375 C 1.265625 -11.867188 1.679688 -13.640625 2.515625 -15.171875 C 3.359375 -16.703125 4.515625 -17.898438 5.984375 -18.765625 C 7.460938 -19.628906 9.1875 -20.0625 11.15625 -20.0625 C 13.101562 -20.0625 14.816406 -19.628906 16.296875 -18.765625 C 17.785156 -17.898438 18.941406 -16.703125 19.765625 -15.171875 C 20.597656 -13.640625 21.015625 -11.867188 21.015625 -9.859375 C 21.015625 -7.847656 20.597656 -6.078125 19.765625 -4.546875 C 18.941406 -3.015625 17.785156 -1.816406 16.296875 -0.953125 C 14.816406 -0.0859375 13.101562 0.34375 11.15625 0.34375 Z M 11.15625 -2.90625 C 13.03125 -2.90625 14.523438 -3.523438 15.640625 -4.765625 C 16.765625 -6.003906 17.328125 -7.703125 17.328125 -9.859375 C 17.328125 -12.015625 16.765625 -13.710938 15.640625 -14.953125 C 14.523438 -16.191406 13.03125 -16.8125 11.15625 -16.8125 C 9.28125 -16.8125 7.773438 -16.191406 6.640625 -14.953125 C 5.515625 -13.710938 4.953125 -12.015625 4.953125 -9.859375 C 4.953125 -7.703125 5.515625 -6.003906 6.640625 -4.765625 C 7.773438 -3.523438 9.28125 -2.90625 11.15625 -2.90625 Z M 11.15625 -2.90625 "/></g></g></g><g fill="#000000" fill-opacity="1"><g transform="translate(231.053604, 77.491607)"><g><path d="M 1.921875 0 L 1.921875 -19.71875 L 5.515625 -19.71875 L 5.515625 -2.8125 L 14.25 -2.8125 L 14.25 0 Z M 1.921875 0 "/></g></g></g><g fill="#000000" fill-opacity="1"><g transform="translate(245.867132, 77.491607)"><g><path d="M 1.921875 0 L 1.921875 -19.71875 L 5.515625 -19.71875 L 5.515625 -2.8125 L 14.25 -2.8125 L 14.25 0 Z M 1.921875 0 "/></g></g></g><g fill="#000000" fill-opacity="1"><g transform="translate(260.680659, 77.491607)"><g><path d="M 1.921875 0 L 1.921875 -19.71875 L 14.796875 -19.71875 L 14.796875 -16.8125 L 5.515625 -16.8125 L 5.515625 -11.40625 L 13.9375 -11.40625 L 13.9375 -8.59375 L 5.515625 -8.59375 L 5.515625 -2.90625 L 14.796875 -2.90625 L 14.796875 0 Z M 1.921875 0 "/></g></g></g><g fill="#000000" fill-opacity="1"><g transform="translate(276.25459, 77.491607)"><g><path d="M 10.84375 0.34375 C 8.851562 0.34375 7.144531 -0.0820312 5.71875 -0.9375 C 4.289062 -1.789062 3.191406 -2.984375 2.421875 -4.515625 C 1.648438 -6.046875 1.265625 -7.816406 1.265625 -9.828125 C 1.265625 -11.835938 1.648438 -13.613281 2.421875 -15.15625 C 3.191406 -16.695312 4.289062 -17.898438 5.71875 -18.765625 C 7.144531 -19.628906 8.851562 -20.0625 10.84375 -20.0625 C 13.207031 -20.0625 15.144531 -19.472656 16.65625 -18.296875 C 18.175781 -17.117188 19.125 -15.472656 19.5 -13.359375 L 15.515625 -13.359375 C 15.273438 -14.421875 14.753906 -15.257812 13.953125 -15.875 C 13.160156 -16.488281 12.109375 -16.796875 10.796875 -16.796875 C 8.972656 -16.796875 7.539062 -16.175781 6.5 -14.9375 C 5.46875 -13.695312 4.953125 -11.992188 4.953125 -9.828125 C 4.953125 -7.671875 5.46875 -5.976562 6.5 -4.75 C 7.539062 -3.519531 8.972656 -2.90625 10.796875 -2.90625 C 12.109375 -2.90625 13.160156 -3.191406 13.953125 -3.765625 C 14.753906 -4.335938 15.273438 -5.128906 15.515625 -6.140625 L 19.5 -6.140625 C 19.125 -4.109375 18.175781 -2.519531 16.65625 -1.375 C 15.144531 -0.226562 13.207031 0.34375 10.84375 0.34375 Z M 10.84375 0.34375 "/></g></g></g><g fill="#000000" fill-opacity="1"><g transform="translate(296.306424, 77.491607)"><g><path d="M 6.5 0 L 6.5 -16.8125 L 0.765625 -16.8125 L 0.765625 -19.71875 L 15.890625 -19.71875 L 15.890625 -16.8125 L 10.109375 -16.8125 L 10.109375 0 Z M 6.5 0 "/></g></g></g><g fill="#000000" fill-opacity="1"><g transform="translate(312.246458, 77.491607)"><g><path d="M 1.921875 0 L 1.921875 -19.71875 L 5.515625 -19.71875 L 5.515625 0 Z M 1.921875 0 "/></g></g></g><g fill="#000000" fill-opacity="1"><g transform="translate(318.977222, 77.491607)"><g><path d="M 7.640625 0 L 0.421875 -19.71875 L 4.28125 -19.71875 L 9.859375 -3.6875 L 15.46875 -19.71875 L 19.265625 -19.71875 L 12.0625 0 Z M 7.640625 0 "/></g></g></g><g fill="#000000" fill-opacity="1"><g transform="translate(337.958883, 77.491607)"><g><path d="M 1.921875 0 L 1.921875 -19.71875 L 14.796875 -19.71875 L 14.796875 -16.8125 L 5.515625 -16.8125 L 5.515625 -11.40625 L 13.9375 -11.40625 L 13.9375 -8.59375 L 5.515625 -8.59375 L 5.515625 -2.90625 L 14.796875 -2.90625 L 14.796875 0 Z M 1.921875 0 "/></g></g></g></g></g></g></g></g></g></mask><clipPath id="3bbbaab250"><path d="M 35.34375 0.492188 L 375 0.492188 L 375 135.449219 L 35.34375 135.449219 Z M 35.34375 0.492188 " clip-rule="nonzero"/></clipPath><clipPath id="6810bed5e5"><rect x="0" width="375" y="0" height="136"/></clipPath><clipPath id="66fd8fbdef"><rect x="0" width="375" y="0" height="136"/></clipPath><clipPath id="7324712dab"><rect x="0" width="375" y="0" height="138"/></clipPath><clipPath id="d6f74faee9"><path d="M 0 0 L 214.753906 0 L 214.753906 347.710938 L 0 347.710938 Z M 0 0 " clip-rule="nonzero"/></clipPath><clipPath id="3032c424ae"><path d="M 0 0 L 214.753906 0 L 214.753906 347.710938 L 0 347.710938 Z M 0 0 " clip-rule="nonzero"/></clipPath><clipPath id="5ccc7494ae"><path d="M 0 0.476562 L 207.730469 0.476562 L 207.730469 341.460938 L 0 341.460938 Z M 0 0.476562 " clip-rule="nonzero"/></clipPath><linearGradient x1="-96.26899" gradientTransform="matrix(0.779805, 0, 0, 0.780117, 14.328131, 125.33343)" y1="199.151985" x2="255.472501" gradientUnits="userSpaceOnUse" y2="-152.58949" id="66397b77c1"><stop stop-opacity="1" stop-color="rgb(27.449036%, 7.058716%, 28.239441%)" offset="0"/><stop stop-opacity="1" stop-color="rgb(27.449036%, 7.058716%, 28.239441%)" offset="0.25"/><stop stop-opacity="1" stop-color="rgb(27.449036%, 7.058716%, 28.239441%)" offset="0.3125"/><stop stop-opacity="1" stop-color="rgb(29.38385%, 7.781982%, 28.219604%)" offset="0.316406"/><stop stop-opacity="1" stop-color="rgb(31.318665%, 8.505249%, 28.199768%)" offset="0.320313"/><stop stop-opacity="1" stop-color="rgb(33.796692%, 9.431458%, 28.173828%)" offset="0.324219"/><stop stop-opacity="1" stop-color="rgb(36.276245%, 10.357666%, 28.147888%)" offset="0.328125"/><stop stop-opacity="1" stop-color="rgb(38.754272%, 11.283875%, 28.121948%)" offset="0.332031"/><stop stop-opacity="1" stop-color="rgb(41.2323%, 12.211609%, 28.097534%)" offset="0.335938"/><stop stop-opacity="1" stop-color="rgb(43.710327%, 13.137817%, 28.071594%)" offset="0.339844"/><stop stop-opacity="1" stop-color="rgb(46.18988%, 14.064026%, 28.045654%)" offset="0.34375"/><stop stop-opacity="1" stop-color="rgb(48.667908%, 14.990234%, 28.019714%)" offset="0.347656"/><stop stop-opacity="1" stop-color="rgb(51.145935%, 15.916443%, 27.9953%)" offset="0.351562"/><stop stop-opacity="1" stop-color="rgb(53.623962%, 16.842651%, 27.96936%)" offset="0.355469"/><stop stop-opacity="1" stop-color="rgb(56.10199%, 17.76886%, 27.94342%)" offset="0.359375"/><stop stop-opacity="1" stop-color="rgb(58.580017%, 18.695068%, 27.91748%)" offset="0.363281"/><stop stop-opacity="1" stop-color="rgb(61.05957%, 19.621277%, 27.893066%)" offset="0.367188"/><stop stop-opacity="1" stop-color="rgb(63.537598%, 20.547485%, 27.867126%)" offset="0.371094"/><stop stop-opacity="1" stop-color="rgb(66.015625%, 21.47522%, 27.841187%)" offset="0.375"/><stop stop-opacity="1" stop-color="rgb(68.310547%, 24.67041%, 28.552246%)" offset="0.378906"/><stop stop-opacity="1" stop-color="rgb(70.605469%, 27.865601%, 29.264832%)" offset="0.382812"/><stop stop-opacity="1" stop-color="rgb(72.889709%, 31.182861%, 30.015564%)" offset="0.386719"/><stop stop-opacity="1" stop-color="rgb(75.175476%, 34.500122%, 30.766296%)" offset="0.390625"/><stop stop-opacity="1" stop-color="rgb(77.459717%, 37.817383%, 31.517029%)" offset="0.394531"/><stop stop-opacity="1" stop-color="rgb(79.743958%, 41.134644%, 32.267761%)" offset="0.398438"/><stop stop-opacity="1" stop-color="rgb(82.028198%, 44.451904%, 33.018494%)" offset="0.402344"/><stop stop-opacity="1" stop-color="rgb(84.313965%, 47.769165%, 33.770752%)" offset="0.40625"/><stop stop-opacity="1" stop-color="rgb(86.598206%, 51.086426%, 34.521484%)" offset="0.410156"/><stop stop-opacity="1" stop-color="rgb(88.883972%, 54.405212%, 35.272217%)" offset="0.414063"/><stop stop-opacity="1" stop-color="rgb(91.168213%, 57.722473%, 36.022949%)" offset="0.417969"/><stop stop-opacity="1" stop-color="rgb(93.452454%, 61.039734%, 36.773682%)" offset="0.421875"/><stop stop-opacity="1" stop-color="rgb(94.398499%, 62.995911%, 38.499451%)" offset="0.425781"/><stop stop-opacity="1" stop-color="rgb(95.344543%, 64.952087%, 40.226746%)" offset="0.429688"/><stop stop-opacity="1" stop-color="rgb(95.669556%, 66.278076%, 42.404175%)" offset="0.433594"/><stop stop-opacity="1" stop-color="rgb(95.996094%, 67.605591%, 44.58313%)" offset="0.4375"/><stop stop-opacity="1" stop-color="rgb(96.321106%, 68.93158%, 46.762085%)" offset="0.441406"/><stop stop-opacity="1" stop-color="rgb(96.646118%, 70.259094%, 48.94104%)" offset="0.445313"/><stop stop-opacity="1" stop-color="rgb(96.97113%, 71.585083%, 51.118469%)" offset="0.449219"/><stop stop-opacity="1" stop-color="rgb(97.297668%, 72.912598%, 53.297424%)" offset="0.453125"/><stop stop-opacity="1" stop-color="rgb(97.622681%, 74.238586%, 55.474854%)" offset="0.457031"/><stop stop-opacity="1" stop-color="rgb(97.949219%, 75.566101%, 57.653809%)" offset="0.460938"/><stop stop-opacity="1" stop-color="rgb(98.274231%, 76.89209%, 59.831238%)" offset="0.464844"/><stop stop-opacity="1" stop-color="rgb(98.600769%, 78.219604%, 62.010193%)" offset="0.46875"/><stop stop-opacity="1" stop-color="rgb(98.925781%, 79.545593%, 64.187622%)" offset="0.472656"/><stop stop-opacity="1" stop-color="rgb(99.250793%, 80.873108%, 66.366577%)" offset="0.476563"/><stop stop-opacity="1" stop-color="rgb(99.575806%, 82.199097%, 68.544006%)" offset="0.480469"/><stop stop-opacity="1" stop-color="rgb(99.902344%, 83.526611%, 70.722961%)" offset="0.484375"/><stop stop-opacity="1" stop-color="rgb(99.951172%, 83.721924%, 71.046448%)" offset="0.488281"/><stop stop-opacity="1" stop-color="rgb(100%, 83.918762%, 71.369934%)" offset="0.492188"/><stop stop-opacity="1" stop-color="rgb(100%, 83.918762%, 71.369934%)" offset="0.5"/><stop stop-opacity="1" stop-color="rgb(100%, 83.918762%, 71.369934%)" offset="0.621328"/><stop stop-opacity="1" stop-color="rgb(100%, 83.918762%, 71.369934%)" offset="1"/></linearGradient><clipPath id="115d30ee79"><rect x="0" width="215" y="0" height="348"/></clipPath><clipPath id="5aca2703da"><path d="M 0 0 L 214.753906 0 L 214.753906 347.710938 L 0 347.710938 Z M 0 0 " clip-rule="nonzero"/></clipPath><clipPath id="94fc176d7b"><rect x="0" width="215" y="0" height="348"/></clipPath><clipPath id="43c1c8fe53"><rect x="0" width="215" y="0" height="348"/></clipPath><mask id="879ed66333"><g filter="url(#6658bad0e8)"><g transform="matrix(1, 0, 0, 1, 0, 0)"><g clip-path="url(#43c1c8fe53)"><g clip-path="url(#5aca2703da)"><g transform="matrix(1, 0, 0, 1, 0, 0)"><g clip-path="url(#94fc176d7b)"><g fill="#000000" fill-opacity="1"><g transform="translate(21.078215, 193.98949)"><g><path d="M 16.515625 -47.703125 L 8.609375 0 L 2.59375 0 L 10.5 -47.703125 Z M 16.515625 -47.703125 "/></g></g></g><g fill="#000000" fill-opacity="1"><g transform="translate(34.959416, 193.98949)"><g><path d="M 16.515625 -47.703125 L 8.609375 0 L 2.59375 0 L 10.5 -47.703125 Z M 16.515625 -47.703125 "/></g></g></g><g fill="#000000" fill-opacity="1"><g transform="translate(48.840616, 193.98949)"><g><path d="M 16.515625 -47.703125 L 8.609375 0 L 2.59375 0 L 10.5 -47.703125 Z M 16.515625 -47.703125 "/></g></g></g><g fill="#000000" fill-opacity="1"><g transform="translate(62.721816, 193.98949)"><g><path d="M 16.515625 -47.703125 L 8.609375 0 L 2.59375 0 L 10.5 -47.703125 Z M 16.515625 -47.703125 "/></g></g></g></g></g></g></g></g></g></mask><clipPath id="ce98d7436e"><path d="M 0 0.476562 L 207.730469 0.476562 L 207.730469 341.460938 L 0 341.460938 Z M 0 0.476562 " clip-rule="nonzero"/></clipPath><clipPath id="b4a308358a"><rect x="0" width="215" y="0" height="348"/></clipPath><clipPath id="15b3592a94"><rect x="0" width="215" y="0" height="348"/></clipPath><clipPath id="737a2b64bd"><rect x="0" width="215" y="0" height="349"/></clipPath></defs><g transform="matrix(1, 0, 0, 1, 0, 102)"><g clip-path="url(#7324712dab)"><g clip-path="url(#8a803c0f8d)"><g transform="matrix(1, 0, 0, 1, 0, 1)"><g clip-path="url(#66fd8fbdef)"><g clip-path="url(#6ebdaf512f)"><g mask="url(#5315d20927)"><g transform="matrix(1, 0, 0, 1, 0, 0)"><g clip-path="url(#6810bed5e5)"><g clip-path="url(#3bbbaab250)"><path fill="url(#2b7c5b3b05)" d="M 35.34375 0.492188 L 35.34375 135.449219 L 375 135.449219 L 375 0.492188 Z M 35.34375 0.492188 " fill-rule="nonzero"/></g></g></g></g></g></g></g></g></g></g><g transform="matrix(1, 0, 0, 1, 0, 0)"><g clip-path="url(#737a2b64bd)"><g clip-path="url(#d6f74faee9)"><g transform="matrix(1, 0, 0, 1, 0, 0)"><g clip-path="url(#15b3592a94)"><g clip-path="url(#3032c424ae)"><g mask="url(#879ed66333)"><g transform="matrix(1, 0, 0, 1, 0, 0)"><g clip-path="url(#b4a308358a)"><g clip-path="url(#ce98d7436e)"><path fill="url(#66397b77c1)" d="M 0 0.476562 L 0 341.460938 L 207.730469 341.460938 L 207.730469 0.476562 Z M 0 0.476562 " fill-rule="nonzero"/></g></g></g></g></g></g></g></g></g></g></svg>