<svg xmlns="http://www.w3.org/2000/svg" xmlns:xlink="http://www.w3.org/1999/xlink" width="500" zoomAndPan="magnify" viewBox="0 0 375 74.999997" height="100" preserveAspectRatio="xMidYMid meet" version="1.0"><defs><filter x="0%" y="0%" width="100%" height="100%" id="1d42edb776"><feColorMatrix values="0 0 0 0 1 0 0 0 0 1 0 0 0 0 1 0 0 0 1 0" color-interpolation-filters="sRGB"/></filter><g/><clipPath id="2ffe7539d5"><rect x="0" width="273" y="0" height="39"/></clipPath><clipPath id="c22ec4fb0d"><path d="M 0 0 L 212.515625 0 L 212.515625 75 L 0 75 Z M 0 0 " clip-rule="nonzero"/></clipPath><clipPath id="de3ef18d34"><path d="M 0 0 L 212.515625 0 L 212.515625 75 L 0 75 Z M 0 0 " clip-rule="nonzero"/></clipPath><clipPath id="04f206d933"><path d="M 0 0 L 205.277344 0 L 205.277344 75 L 0 75 Z M 0 0 " clip-rule="nonzero"/></clipPath><linearGradient x1="-4.839972" gradientTransform="matrix(0.803642, 0, 0, 0.803964, 5.962287, -9.531856)" y1="107.722971" x2="169.520966" gradientUnits="userSpaceOnUse" y2="-66.63796" id="1ca2715c53"><stop stop-opacity="1" stop-color="rgb(27.449036%, 7.058716%, 28.239441%)" offset="0"/><stop stop-opacity="1" stop-color="rgb(27.449036%, 7.058716%, 28.239441%)" offset="0.0625"/><stop stop-opacity="1" stop-color="rgb(27.449036%, 7.058716%, 28.239441%)" offset="0.09375"/><stop stop-opacity="1" stop-color="rgb(27.449036%, 7.058716%, 28.239441%)" offset="0.109375"/><stop stop-opacity="1" stop-color="rgb(28.657532%, 7.510376%, 28.227234%)" offset="0.113281"/><stop stop-opacity="1" stop-color="rgb(29.866028%, 7.962036%, 28.215027%)" offset="0.117187"/><stop stop-opacity="1" stop-color="rgb(31.09436%, 8.421326%, 28.201294%)" offset="0.121094"/><stop stop-opacity="1" stop-color="rgb(32.324219%, 8.880615%, 28.189087%)" offset="0.125"/><stop stop-opacity="1" stop-color="rgb(33.552551%, 9.339905%, 28.175354%)" offset="0.128906"/><stop stop-opacity="1" stop-color="rgb(34.780884%, 9.799194%, 28.163147%)" offset="0.132812"/><stop stop-opacity="1" stop-color="rgb(36.009216%, 10.258484%, 28.15094%)" offset="0.136719"/><stop stop-opacity="1" stop-color="rgb(37.237549%, 10.717773%, 28.138733%)" offset="0.140625"/><stop stop-opacity="1" stop-color="rgb(38.465881%, 11.177063%, 28.125%)" offset="0.144531"/><stop stop-opacity="1" stop-color="rgb(39.694214%, 11.636353%, 28.112793%)" offset="0.148437"/><stop stop-opacity="1" stop-color="rgb(40.922546%, 12.095642%, 28.100586%)" offset="0.152344"/><stop stop-opacity="1" stop-color="rgb(42.152405%, 12.554932%, 28.088379%)" offset="0.15625"/><stop stop-opacity="1" stop-color="rgb(43.380737%, 13.014221%, 28.074646%)" offset="0.160156"/><stop stop-opacity="1" stop-color="rgb(44.60907%, 13.473511%, 28.062439%)" offset="0.164062"/><stop stop-opacity="1" stop-color="rgb(45.837402%, 13.9328%, 28.048706%)" offset="0.167969"/><stop stop-opacity="1" stop-color="rgb(47.065735%, 14.39209%, 28.036499%)" offset="0.171875"/><stop stop-opacity="1" stop-color="rgb(48.294067%, 14.851379%, 28.024292%)" offset="0.175781"/><stop stop-opacity="1" stop-color="rgb(49.5224%, 15.310669%, 28.012085%)" offset="0.179687"/><stop stop-opacity="1" stop-color="rgb(50.750732%, 15.768433%, 27.998352%)" offset="0.183594"/><stop stop-opacity="1" stop-color="rgb(51.980591%, 16.227722%, 27.986145%)" offset="0.1875"/><stop stop-opacity="1" stop-color="rgb(53.208923%, 16.687012%, 27.973938%)" offset="0.191406"/><stop stop-opacity="1" stop-color="rgb(54.437256%, 17.146301%, 27.961731%)" offset="0.195312"/><stop stop-opacity="1" stop-color="rgb(55.665588%, 17.605591%, 27.947998%)" offset="0.199219"/><stop stop-opacity="1" stop-color="rgb(56.893921%, 18.06488%, 27.935791%)" offset="0.203125"/><stop stop-opacity="1" stop-color="rgb(58.122253%, 18.52417%, 27.922058%)" offset="0.207031"/><stop stop-opacity="1" stop-color="rgb(59.352112%, 18.983459%, 27.909851%)" offset="0.210938"/><stop stop-opacity="1" stop-color="rgb(60.580444%, 19.442749%, 27.897644%)" offset="0.214844"/><stop stop-opacity="1" stop-color="rgb(61.808777%, 19.902039%, 27.885437%)" offset="0.21875"/><stop stop-opacity="1" stop-color="rgb(63.037109%, 20.361328%, 27.871704%)" offset="0.222656"/><stop stop-opacity="1" stop-color="rgb(64.265442%, 20.820618%, 27.859497%)" offset="0.226562"/><stop stop-opacity="1" stop-color="rgb(65.475464%, 21.498108%, 27.91748%)" offset="0.230469"/><stop stop-opacity="1" stop-color="rgb(66.687012%, 22.177124%, 27.97699%)" offset="0.234375"/><stop stop-opacity="1" stop-color="rgb(67.819214%, 23.820496%, 28.349304%)" offset="0.238281"/><stop stop-opacity="1" stop-color="rgb(68.952942%, 25.465393%, 28.721619%)" offset="0.242188"/><stop stop-opacity="1" stop-color="rgb(70.085144%, 27.108765%, 29.093933%)" offset="0.246094"/><stop stop-opacity="1" stop-color="rgb(71.217346%, 28.753662%, 29.466248%)" offset="0.25"/><stop stop-opacity="1" stop-color="rgb(72.349548%, 30.39856%, 29.838562%)" offset="0.253906"/><stop stop-opacity="1" stop-color="rgb(73.483276%, 32.043457%, 30.210876%)" offset="0.257812"/><stop stop-opacity="1" stop-color="rgb(74.615479%, 33.686829%, 30.581665%)" offset="0.261719"/><stop stop-opacity="1" stop-color="rgb(75.747681%, 35.331726%, 30.953979%)" offset="0.265625"/><stop stop-opacity="1" stop-color="rgb(76.879883%, 36.976624%, 31.326294%)" offset="0.269531"/><stop stop-opacity="1" stop-color="rgb(78.013611%, 38.621521%, 31.698608%)" offset="0.273438"/><stop stop-opacity="1" stop-color="rgb(79.145813%, 40.264893%, 32.070923%)" offset="0.277344"/><stop stop-opacity="1" stop-color="rgb(80.278015%, 41.90979%, 32.443237%)" offset="0.28125"/><stop stop-opacity="1" stop-color="rgb(81.410217%, 43.554688%, 32.815552%)" offset="0.285156"/><stop stop-opacity="1" stop-color="rgb(82.543945%, 45.199585%, 33.187866%)" offset="0.289062"/><stop stop-opacity="1" stop-color="rgb(83.676147%, 46.842957%, 33.560181%)" offset="0.292969"/><stop stop-opacity="1" stop-color="rgb(84.80835%, 48.487854%, 33.932495%)" offset="0.296875"/><stop stop-opacity="1" stop-color="rgb(85.940552%, 50.132751%, 34.30481%)" offset="0.300781"/><stop stop-opacity="1" stop-color="rgb(87.07428%, 51.777649%, 34.677124%)" offset="0.304688"/><stop stop-opacity="1" stop-color="rgb(88.206482%, 53.421021%, 35.049438%)" offset="0.308594"/><stop stop-opacity="1" stop-color="rgb(89.338684%, 55.065918%, 35.421753%)" offset="0.3125"/><stop stop-opacity="1" stop-color="rgb(90.470886%, 56.70929%, 35.794067%)" offset="0.316406"/><stop stop-opacity="1" stop-color="rgb(91.604614%, 58.354187%, 36.166382%)" offset="0.320312"/><stop stop-opacity="1" stop-color="rgb(92.736816%, 59.999084%, 36.538696%)" offset="0.324219"/><stop stop-opacity="1" stop-color="rgb(93.869019%, 61.643982%, 36.911011%)" offset="0.328125"/><stop stop-opacity="1" stop-color="rgb(94.471741%, 62.750244%, 37.667847%)" offset="0.332031"/><stop stop-opacity="1" stop-color="rgb(95.075989%, 63.856506%, 38.426208%)" offset="0.335938"/><stop stop-opacity="1" stop-color="rgb(95.236206%, 64.51416%, 39.506531%)" offset="0.339844"/><stop stop-opacity="1" stop-color="rgb(95.397949%, 65.171814%, 40.586853%)" offset="0.34375"/><stop stop-opacity="1" stop-color="rgb(95.559692%, 65.829468%, 41.665649%)" offset="0.347656"/><stop stop-opacity="1" stop-color="rgb(95.721436%, 66.487122%, 42.745972%)" offset="0.351562"/><stop stop-opacity="1" stop-color="rgb(95.881653%, 67.144775%, 43.824768%)" offset="0.355469"/><stop stop-opacity="1" stop-color="rgb(96.043396%, 67.802429%, 44.90509%)" offset="0.359375"/><stop stop-opacity="1" stop-color="rgb(96.205139%, 68.460083%, 45.985413%)" offset="0.363281"/><stop stop-opacity="1" stop-color="rgb(96.366882%, 69.117737%, 47.065735%)" offset="0.367188"/><stop stop-opacity="1" stop-color="rgb(96.5271%, 69.775391%, 48.144531%)" offset="0.371094"/><stop stop-opacity="1" stop-color="rgb(96.688843%, 70.433044%, 49.224854%)" offset="0.375"/><stop stop-opacity="1" stop-color="rgb(96.850586%, 71.090698%, 50.30365%)" offset="0.378906"/><stop stop-opacity="1" stop-color="rgb(97.012329%, 71.748352%, 51.383972%)" offset="0.382813"/><stop stop-opacity="1" stop-color="rgb(97.172546%, 72.406006%, 52.464294%)" offset="0.386719"/><stop stop-opacity="1" stop-color="rgb(97.33429%, 73.06366%, 53.544617%)" offset="0.390625"/><stop stop-opacity="1" stop-color="rgb(97.496033%, 73.721313%, 54.623413%)" offset="0.394531"/><stop stop-opacity="1" stop-color="rgb(97.657776%, 74.378967%, 55.703735%)" offset="0.398438"/><stop stop-opacity="1" stop-color="rgb(97.817993%, 75.036621%, 56.782532%)" offset="0.402344"/><stop stop-opacity="1" stop-color="rgb(97.979736%, 75.694275%, 57.862854%)" offset="0.40625"/><stop stop-opacity="1" stop-color="rgb(98.141479%, 76.351929%, 58.943176%)" offset="0.410156"/><stop stop-opacity="1" stop-color="rgb(98.303223%, 77.009583%, 60.023499%)" offset="0.414063"/><stop stop-opacity="1" stop-color="rgb(98.464966%, 77.667236%, 61.102295%)" offset="0.417969"/><stop stop-opacity="1" stop-color="rgb(98.626709%, 78.32489%, 62.182617%)" offset="0.421875"/><stop stop-opacity="1" stop-color="rgb(98.786926%, 78.982544%, 63.261414%)" offset="0.425781"/><stop stop-opacity="1" stop-color="rgb(98.948669%, 79.640198%, 64.341736%)" offset="0.429688"/><stop stop-opacity="1" stop-color="rgb(99.110413%, 80.297852%, 65.422058%)" offset="0.433594"/><stop stop-opacity="1" stop-color="rgb(99.272156%, 80.955505%, 66.50238%)" offset="0.4375"/><stop stop-opacity="1" stop-color="rgb(99.432373%, 81.613159%, 67.581177%)" offset="0.441406"/><stop stop-opacity="1" stop-color="rgb(99.594116%, 82.270813%, 68.661499%)" offset="0.445313"/><stop stop-opacity="1" stop-color="rgb(99.755859%, 82.928467%, 69.740295%)" offset="0.449219"/><stop stop-opacity="1" stop-color="rgb(99.917603%, 83.586121%, 70.820618%)" offset="0.453125"/><stop stop-opacity="1" stop-color="rgb(99.958801%, 83.752441%, 71.095276%)" offset="0.457031"/><stop stop-opacity="1" stop-color="rgb(100%, 83.918762%, 71.369934%)" offset="0.460938"/><stop stop-opacity="1" stop-color="rgb(100%, 83.918762%, 71.369934%)" offset="0.46875"/><stop stop-opacity="1" stop-color="rgb(100%, 83.918762%, 71.369934%)" offset="0.5"/><stop stop-opacity="1" stop-color="rgb(100%, 83.918762%, 71.369934%)" offset="0.732487"/><stop stop-opacity="1" stop-color="rgb(100%, 83.918762%, 71.369934%)" offset="1"/></linearGradient><clipPath id="c21d576028"><rect x="0" width="213" y="0" height="75"/></clipPath><clipPath id="5a7232f675"><path d="M 0 0 L 212.515625 0 L 212.515625 75 L 0 75 Z M 0 0 " clip-rule="nonzero"/></clipPath><clipPath id="c3936033e5"><rect x="0" width="213" y="0" height="75"/></clipPath><clipPath id="c9927e0e84"><rect x="0" width="213" y="0" height="75"/></clipPath><mask id="b1b55b3ce6"><g filter="url(#1d42edb776)"><g transform="matrix(1, 0, 0, 1, 0, -0.000000000000001893)"><g clip-path="url(#c9927e0e84)"><g clip-path="url(#5a7232f675)"><g transform="matrix(1, 0, 0, 1, 0, -0.000000000000001893)"><g clip-path="url(#c3936033e5)"><g fill="#000000" fill-opacity="1"><g transform="translate(12.918718, 61.222889)"><g><path d="M 17.015625 -49.15625 L 8.875 0 L 2.671875 0 L 10.828125 -49.15625 Z M 17.015625 -49.15625 "/></g></g></g><g fill="#000000" fill-opacity="1"><g transform="translate(27.224244, 61.222889)"><g><path d="M 17.015625 -49.15625 L 8.875 0 L 2.671875 0 L 10.828125 -49.15625 Z M 17.015625 -49.15625 "/></g></g></g><g fill="#000000" fill-opacity="1"><g transform="translate(41.52977, 61.222889)"><g><path d="M 17.015625 -49.15625 L 8.875 0 L 2.671875 0 L 10.828125 -49.15625 Z M 17.015625 -49.15625 "/></g></g></g><g fill="#000000" fill-opacity="1"><g transform="translate(55.835296, 61.222889)"><g><path d="M 17.015625 -49.15625 L 8.875 0 L 2.671875 0 L 10.828125 -49.15625 Z M 17.015625 -49.15625 "/></g></g></g></g></g></g></g></g></g></mask><clipPath id="a1707f531a"><path d="M 0 0 L 205.277344 0 L 205.277344 75 L 0 75 Z M 0 0 " clip-rule="nonzero"/></clipPath><clipPath id="64f025c777"><rect x="0" width="213" y="0" height="75"/></clipPath><clipPath id="684564f08f"><rect x="0" width="213" y="0" height="75"/></clipPath><clipPath id="8dcce7da14"><rect x="0" width="213" y="0" height="75"/></clipPath></defs><rect x="-37.5" width="450" fill="#ffffff" y="-7.5" height="89.999996" fill-opacity="1"/><rect x="-37.5" width="450" fill="#ffffff" y="-7.5" height="89.999996" fill-opacity="1"/><g transform="matrix(1, 0, 0, 1, 84, 18)"><g clip-path="url(#2ffe7539d5)"><g fill="#ffffff" fill-opacity="1"><g transform="translate(1.356157, 29.312377)"><g><path d="M 8.90625 0.34375 C 7.414062 0.34375 6.097656 0.0859375 4.953125 -0.421875 C 3.816406 -0.929688 2.921875 -1.664062 2.265625 -2.625 C 1.609375 -3.582031 1.269531 -4.75 1.25 -6.125 L 5.171875 -6.125 C 5.203125 -5.175781 5.539062 -4.378906 6.1875 -3.734375 C 6.84375 -3.085938 7.742188 -2.765625 8.890625 -2.765625 C 9.867188 -2.765625 10.648438 -3 11.234375 -3.46875 C 11.816406 -3.945312 12.109375 -4.582031 12.109375 -5.375 C 12.109375 -6.207031 11.847656 -6.851562 11.328125 -7.3125 C 10.816406 -7.78125 10.132812 -8.160156 9.28125 -8.453125 C 8.4375 -8.742188 7.53125 -9.050781 6.5625 -9.375 C 4.988281 -9.914062 3.789062 -10.613281 2.96875 -11.46875 C 2.144531 -12.320312 1.734375 -13.453125 1.734375 -14.859375 C 1.722656 -16.054688 2.007812 -17.085938 2.59375 -17.953125 C 3.1875 -18.816406 3.992188 -19.484375 5.015625 -19.953125 C 6.046875 -20.429688 7.226562 -20.671875 8.5625 -20.671875 C 9.914062 -20.671875 11.109375 -20.425781 12.140625 -19.9375 C 13.179688 -19.457031 13.992188 -18.78125 14.578125 -17.90625 C 15.171875 -17.039062 15.488281 -16.007812 15.53125 -14.8125 L 11.546875 -14.8125 C 11.535156 -15.519531 11.257812 -16.148438 10.71875 -16.703125 C 10.1875 -17.253906 9.445312 -17.53125 8.5 -17.53125 C 7.6875 -17.550781 7.003906 -17.351562 6.453125 -16.9375 C 5.898438 -16.519531 5.625 -15.914062 5.625 -15.125 C 5.625 -14.445312 5.835938 -13.910156 6.265625 -13.515625 C 6.691406 -13.117188 7.269531 -12.785156 8 -12.515625 C 8.738281 -12.242188 9.582031 -11.953125 10.53125 -11.640625 C 11.539062 -11.296875 12.460938 -10.890625 13.296875 -10.421875 C 14.128906 -9.953125 14.796875 -9.335938 15.296875 -8.578125 C 15.796875 -7.816406 16.046875 -6.832031 16.046875 -5.625 C 16.046875 -4.5625 15.773438 -3.578125 15.234375 -2.671875 C 14.691406 -1.765625 13.890625 -1.035156 12.828125 -0.484375 C 11.765625 0.0664062 10.457031 0.34375 8.90625 0.34375 Z M 8.90625 0.34375 "/></g></g></g><g fill="#ffffff" fill-opacity="1"><g transform="translate(17.9576, 29.312377)"><g><path d="M 11.171875 0.34375 C 9.117188 0.34375 7.359375 -0.09375 5.890625 -0.96875 C 4.421875 -1.851562 3.289062 -3.082031 2.5 -4.65625 C 1.707031 -6.238281 1.3125 -8.0625 1.3125 -10.125 C 1.3125 -12.195312 1.707031 -14.023438 2.5 -15.609375 C 3.289062 -17.203125 4.421875 -18.441406 5.890625 -19.328125 C 7.359375 -20.222656 9.117188 -20.671875 11.171875 -20.671875 C 13.609375 -20.671875 15.609375 -20.066406 17.171875 -18.859375 C 18.734375 -17.648438 19.707031 -15.953125 20.09375 -13.765625 L 16 -13.765625 C 15.75 -14.867188 15.210938 -15.734375 14.390625 -16.359375 C 13.566406 -16.984375 12.476562 -17.296875 11.125 -17.296875 C 9.238281 -17.296875 7.765625 -16.65625 6.703125 -15.375 C 5.640625 -14.101562 5.109375 -12.351562 5.109375 -10.125 C 5.109375 -7.90625 5.640625 -6.160156 6.703125 -4.890625 C 7.765625 -3.617188 9.238281 -2.984375 11.125 -2.984375 C 12.476562 -2.984375 13.566406 -3.28125 14.390625 -3.875 C 15.210938 -4.46875 15.75 -5.285156 16 -6.328125 L 20.09375 -6.328125 C 19.707031 -4.234375 18.734375 -2.597656 17.171875 -1.421875 C 15.609375 -0.242188 13.609375 0.34375 11.171875 0.34375 Z M 11.171875 0.34375 "/></g></g></g><g fill="#ffffff" fill-opacity="1"><g transform="translate(38.622384, 29.312377)"><g><path d="M 1.96875 0 L 1.96875 -20.328125 L 9.4375 -20.328125 C 11.0625 -20.328125 12.398438 -20.050781 13.453125 -19.5 C 14.503906 -18.945312 15.289062 -18.195312 15.8125 -17.25 C 16.34375 -16.3125 16.609375 -15.273438 16.609375 -14.140625 C 16.609375 -12.898438 16.28125 -11.765625 15.625 -10.734375 C 14.976562 -9.710938 13.96875 -8.96875 12.59375 -8.5 L 16.8125 0 L 12.546875 0 L 8.765625 -8.015625 L 5.6875 -8.015625 L 5.6875 0 Z M 5.6875 -10.734375 L 9.203125 -10.734375 C 10.441406 -10.734375 11.347656 -11.035156 11.921875 -11.640625 C 12.503906 -12.242188 12.796875 -13.035156 12.796875 -14.015625 C 12.796875 -14.984375 12.507812 -15.757812 11.9375 -16.34375 C 11.375 -16.925781 10.453125 -17.21875 9.171875 -17.21875 L 5.6875 -17.21875 Z M 5.6875 -10.734375 "/></g></g></g><g fill="#ffffff" fill-opacity="1"><g transform="translate(55.978454, 29.312377)"><g><path d="M 1.96875 0 L 1.96875 -20.328125 L 5.6875 -20.328125 L 5.6875 0 Z M 1.96875 0 "/></g></g></g><g fill="#ffffff" fill-opacity="1"><g transform="translate(62.914953, 29.312377)"><g><path d="M 1.96875 0 L 1.96875 -20.328125 L 9.5 -20.328125 C 11.125 -20.328125 12.46875 -20.054688 13.53125 -19.515625 C 14.59375 -18.972656 15.382812 -18.222656 15.90625 -17.265625 C 16.425781 -16.316406 16.6875 -15.253906 16.6875 -14.078125 C 16.6875 -12.953125 16.4375 -11.921875 15.9375 -10.984375 C 15.4375 -10.046875 14.648438 -9.289062 13.578125 -8.71875 C 12.515625 -8.15625 11.15625 -7.875 9.5 -7.875 L 5.6875 -7.875 L 5.6875 0 Z M 5.6875 -10.890625 L 9.265625 -10.890625 C 10.554688 -10.890625 11.488281 -11.171875 12.0625 -11.734375 C 12.632812 -12.304688 12.921875 -13.085938 12.921875 -14.078125 C 12.921875 -15.085938 12.632812 -15.875 12.0625 -16.4375 C 11.488281 -17.007812 10.554688 -17.296875 9.265625 -17.296875 L 5.6875 -17.296875 Z M 5.6875 -10.890625 "/></g></g></g><g fill="#ffffff" fill-opacity="1"><g transform="translate(79.806641, 29.312377)"><g><path d="M 6.703125 0 L 6.703125 -17.328125 L 0.78125 -17.328125 L 0.78125 -20.328125 L 16.375 -20.328125 L 16.375 -17.328125 L 10.421875 -17.328125 L 10.421875 0 Z M 6.703125 0 "/></g></g></g><g fill="#ffffff" fill-opacity="1"><g transform="translate(96.233948, 29.312377)"><g/></g></g><g fill="#ffffff" fill-opacity="1"><g transform="translate(102.415833, 29.312377)"><g><path d="M 11.171875 0.34375 C 9.117188 0.34375 7.359375 -0.09375 5.890625 -0.96875 C 4.421875 -1.851562 3.289062 -3.082031 2.5 -4.65625 C 1.707031 -6.238281 1.3125 -8.0625 1.3125 -10.125 C 1.3125 -12.195312 1.707031 -14.023438 2.5 -15.609375 C 3.289062 -17.203125 4.421875 -18.441406 5.890625 -19.328125 C 7.359375 -20.222656 9.117188 -20.671875 11.171875 -20.671875 C 13.609375 -20.671875 15.609375 -20.066406 17.171875 -18.859375 C 18.734375 -17.648438 19.707031 -15.953125 20.09375 -13.765625 L 16 -13.765625 C 15.75 -14.867188 15.210938 -15.734375 14.390625 -16.359375 C 13.566406 -16.984375 12.476562 -17.296875 11.125 -17.296875 C 9.238281 -17.296875 7.765625 -16.65625 6.703125 -15.375 C 5.640625 -14.101562 5.109375 -12.351562 5.109375 -10.125 C 5.109375 -7.90625 5.640625 -6.160156 6.703125 -4.890625 C 7.765625 -3.617188 9.238281 -2.984375 11.125 -2.984375 C 12.476562 -2.984375 13.566406 -3.28125 14.390625 -3.875 C 15.210938 -4.46875 15.75 -5.285156 16 -6.328125 L 20.09375 -6.328125 C 19.707031 -4.234375 18.734375 -2.597656 17.171875 -1.421875 C 15.609375 -0.242188 13.609375 0.34375 11.171875 0.34375 Z M 11.171875 0.34375 "/></g></g></g><g fill="#ffffff" fill-opacity="1"><g transform="translate(123.080618, 29.312377)"><g><path d="M 11.5 0.34375 C 9.46875 0.34375 7.691406 -0.0976562 6.171875 -0.984375 C 4.648438 -1.878906 3.457031 -3.113281 2.59375 -4.6875 C 1.738281 -6.257812 1.3125 -8.082031 1.3125 -10.15625 C 1.3125 -12.226562 1.738281 -14.050781 2.59375 -15.625 C 3.457031 -17.207031 4.648438 -18.441406 6.171875 -19.328125 C 7.691406 -20.222656 9.46875 -20.671875 11.5 -20.671875 C 13.507812 -20.671875 15.28125 -20.222656 16.8125 -19.328125 C 18.34375 -18.441406 19.53125 -17.207031 20.375 -15.625 C 21.226562 -14.050781 21.65625 -12.226562 21.65625 -10.15625 C 21.65625 -8.082031 21.226562 -6.257812 20.375 -4.6875 C 19.53125 -3.113281 18.34375 -1.878906 16.8125 -0.984375 C 15.28125 -0.0976562 13.507812 0.34375 11.5 0.34375 Z M 11.5 -2.984375 C 13.4375 -2.984375 14.976562 -3.625 16.125 -4.90625 C 17.28125 -6.1875 17.859375 -7.9375 17.859375 -10.15625 C 17.859375 -12.382812 17.28125 -14.132812 16.125 -15.40625 C 14.976562 -16.6875 13.4375 -17.328125 11.5 -17.328125 C 9.5625 -17.328125 8.007812 -16.6875 6.84375 -15.40625 C 5.6875 -14.132812 5.109375 -12.382812 5.109375 -10.15625 C 5.109375 -7.9375 5.6875 -6.1875 6.84375 -4.90625 C 8.007812 -3.625 9.5625 -2.984375 11.5 -2.984375 Z M 11.5 -2.984375 "/></g></g></g><g fill="#ffffff" fill-opacity="1"><g transform="translate(145.312697, 29.312377)"><g><path d="M 1.96875 0 L 1.96875 -20.328125 L 5.6875 -20.328125 L 5.6875 -2.90625 L 14.6875 -2.90625 L 14.6875 0 Z M 1.96875 0 "/></g></g></g><g fill="#ffffff" fill-opacity="1"><g transform="translate(160.579049, 29.312377)"><g><path d="M 1.96875 0 L 1.96875 -20.328125 L 5.6875 -20.328125 L 5.6875 -2.90625 L 14.6875 -2.90625 L 14.6875 0 Z M 1.96875 0 "/></g></g></g><g fill="#ffffff" fill-opacity="1"><g transform="translate(175.8454, 29.312377)"><g><path d="M 1.96875 0 L 1.96875 -20.328125 L 15.234375 -20.328125 L 15.234375 -17.328125 L 5.6875 -17.328125 L 5.6875 -11.75 L 14.375 -11.75 L 14.375 -8.859375 L 5.6875 -8.859375 L 5.6875 -2.984375 L 15.234375 -2.984375 L 15.234375 0 Z M 1.96875 0 "/></g></g></g><g fill="#ffffff" fill-opacity="1"><g transform="translate(191.8954, 29.312377)"><g><path d="M 11.171875 0.34375 C 9.117188 0.34375 7.359375 -0.09375 5.890625 -0.96875 C 4.421875 -1.851562 3.289062 -3.082031 2.5 -4.65625 C 1.707031 -6.238281 1.3125 -8.0625 1.3125 -10.125 C 1.3125 -12.195312 1.707031 -14.023438 2.5 -15.609375 C 3.289062 -17.203125 4.421875 -18.441406 5.890625 -19.328125 C 7.359375 -20.222656 9.117188 -20.671875 11.171875 -20.671875 C 13.609375 -20.671875 15.609375 -20.066406 17.171875 -18.859375 C 18.734375 -17.648438 19.707031 -15.953125 20.09375 -13.765625 L 16 -13.765625 C 15.75 -14.867188 15.210938 -15.734375 14.390625 -16.359375 C 13.566406 -16.984375 12.476562 -17.296875 11.125 -17.296875 C 9.238281 -17.296875 7.765625 -16.65625 6.703125 -15.375 C 5.640625 -14.101562 5.109375 -12.351562 5.109375 -10.125 C 5.109375 -7.90625 5.640625 -6.160156 6.703125 -4.890625 C 7.765625 -3.617188 9.238281 -2.984375 11.125 -2.984375 C 12.476562 -2.984375 13.566406 -3.28125 14.390625 -3.875 C 15.210938 -4.46875 15.75 -5.285156 16 -6.328125 L 20.09375 -6.328125 C 19.707031 -4.234375 18.734375 -2.597656 17.171875 -1.421875 C 15.609375 -0.242188 13.609375 0.34375 11.171875 0.34375 Z M 11.171875 0.34375 "/></g></g></g><g fill="#ffffff" fill-opacity="1"><g transform="translate(212.560185, 29.312377)"><g><path d="M 6.703125 0 L 6.703125 -17.328125 L 0.78125 -17.328125 L 0.78125 -20.328125 L 16.375 -20.328125 L 16.375 -17.328125 L 10.421875 -17.328125 L 10.421875 0 Z M 6.703125 0 "/></g></g></g><g fill="#ffffff" fill-opacity="1"><g transform="translate(228.987478, 29.312377)"><g><path d="M 1.96875 0 L 1.96875 -20.328125 L 5.6875 -20.328125 L 5.6875 0 Z M 1.96875 0 "/></g></g></g><g fill="#ffffff" fill-opacity="1"><g transform="translate(235.92399, 29.312377)"><g><path d="M 7.875 0 L 0.4375 -20.328125 L 4.40625 -20.328125 L 10.15625 -3.796875 L 15.9375 -20.328125 L 19.859375 -20.328125 L 12.421875 0 Z M 7.875 0 "/></g></g></g><g fill="#ffffff" fill-opacity="1"><g transform="translate(255.485887, 29.312377)"><g><path d="M 1.96875 0 L 1.96875 -20.328125 L 15.234375 -20.328125 L 15.234375 -17.328125 L 5.6875 -17.328125 L 5.6875 -11.75 L 14.375 -11.75 L 14.375 -8.859375 L 5.6875 -8.859375 L 5.6875 -2.984375 L 15.234375 -2.984375 L 15.234375 0 Z M 1.96875 0 "/></g></g></g></g></g><g transform="matrix(1, 0, 0, 1, 0, -0.000000000000001893)"><g clip-path="url(#8dcce7da14)"><g clip-path="url(#c22ec4fb0d)"><g transform="matrix(1, 0, 0, 1, 0, -0.000000000000001893)"><g clip-path="url(#684564f08f)"><g clip-path="url(#de3ef18d34)"><g mask="url(#b1b55b3ce6)"><g transform="matrix(1, 0, 0, 1, 0, -0.000000000000001893)"><g clip-path="url(#64f025c777)"><g clip-path="url(#a1707f531a)"><path fill="url(#1ca2715c53)" d="M 0 0 L 0 75 L 205.277344 75 L 205.277344 0 Z M 0 0 " fill-rule="nonzero"/></g></g></g></g></g></g></g></g></g></g></svg>